G04*
G04 #@! TF.GenerationSoftware,Altium Limited,Altium Designer,22.10.1 (41)*
G04*
G04 Layer_Color=16711935*
%FSLAX25Y25*%
%MOIN*%
G70*
G04*
G04 #@! TF.SameCoordinates,D8DE2597-0232-48C6-990D-D127052A737A*
G04*
G04*
G04 #@! TF.FilePolarity,Positive*
G04*
G01*
G75*
%ADD13C,0.02000*%
%ADD44C,0.00100*%
D13*
X324000Y114000D02*
G03*
X324000Y114000I-1500J0D01*
G01*
X324500Y218500D02*
G03*
X324500Y218500I-1500J0D01*
G01*
X61000Y52000D02*
G03*
X61000Y52000I-1500J0D01*
G01*
Y158500D02*
G03*
X61000Y158500I-1500J0D01*
G01*
Y103000D02*
G03*
X61000Y103000I-1500J0D01*
G01*
X60000Y220500D02*
G03*
X60000Y220500I-1500J0D01*
G01*
X59500Y277500D02*
G03*
X59500Y277500I-1500J0D01*
G01*
X325500Y61500D02*
G03*
X325500Y61500I-1500J0D01*
G01*
X323000Y281000D02*
G03*
X323000Y281000I-1500J0D01*
G01*
X324500Y167500D02*
G03*
X324500Y167500I-1500J0D01*
G01*
D44*
X345945Y104000D02*
Y144000D01*
X313858D02*
X345945D01*
X313858Y104000D02*
Y144000D01*
Y104000D02*
X345945D01*
X346445Y208500D02*
Y248500D01*
X314358D02*
X346445D01*
X314358Y208500D02*
Y248500D01*
Y208500D02*
X346445D01*
X82945Y42000D02*
Y82000D01*
X50858D02*
X82945D01*
X50858Y42000D02*
Y82000D01*
Y42000D02*
X82945D01*
Y148500D02*
Y188500D01*
X50858D02*
X82945D01*
X50858Y148500D02*
Y188500D01*
Y148500D02*
X82945D01*
Y93000D02*
Y133000D01*
X50858D02*
X82945D01*
X50858Y93000D02*
Y133000D01*
Y93000D02*
X82945D01*
X81945Y210500D02*
Y250500D01*
X49858D02*
X81945D01*
X49858Y210500D02*
Y250500D01*
Y210500D02*
X81945D01*
X81445Y267500D02*
Y307500D01*
X49358D02*
X81445D01*
X49358Y267500D02*
Y307500D01*
Y267500D02*
X81445D01*
X347445Y51500D02*
Y91500D01*
X315358D02*
X347445D01*
X315358Y51500D02*
Y91500D01*
Y51500D02*
X347445D01*
X344945Y271000D02*
Y311000D01*
X312858D02*
X344945D01*
X312858Y271000D02*
Y311000D01*
Y271000D02*
X344945D01*
X346445Y157500D02*
Y197500D01*
X314358D02*
X346445D01*
X314358Y157500D02*
Y197500D01*
Y157500D02*
X346445D01*
M02*
