G04*
G04 #@! TF.GenerationSoftware,Altium Limited,Altium Designer,22.10.1 (41)*
G04*
G04 Layer_Color=16711935*
%FSLAX25Y25*%
%MOIN*%
G70*
G04*
G04 #@! TF.SameCoordinates,D8DE2597-0232-48C6-990D-D127052A737A*
G04*
G04*
G04 #@! TF.FilePolarity,Positive*
G04*
G01*
G75*
%ADD12C,0.00787*%
G36*
X128500Y224765D02*
X126531D01*
X126534Y224761D01*
X126549Y224743D01*
X126571Y224721D01*
X126596Y224685D01*
X126629Y224645D01*
X126665Y224594D01*
X126706Y224536D01*
X126746Y224470D01*
Y224467D01*
X126749Y224463D01*
X126764Y224441D01*
X126782Y224405D01*
X126804Y224361D01*
X126829Y224310D01*
X126855Y224255D01*
X126880Y224201D01*
X126902Y224146D01*
X126604D01*
Y224150D01*
X126596Y224157D01*
X126593Y224172D01*
X126582Y224190D01*
X126571Y224212D01*
X126556Y224237D01*
X126520Y224299D01*
X126480Y224372D01*
X126429Y224445D01*
X126371Y224521D01*
X126309Y224598D01*
X126305Y224601D01*
X126302Y224605D01*
X126291Y224616D01*
X126280Y224630D01*
X126243Y224663D01*
X126199Y224707D01*
X126149Y224750D01*
X126090Y224798D01*
X126032Y224838D01*
X125970Y224874D01*
Y225074D01*
X128500D01*
Y224765D01*
D02*
G37*
G36*
Y223298D02*
X127976Y222967D01*
X127972D01*
X127965Y222960D01*
X127954Y222952D01*
X127939Y222941D01*
X127899Y222916D01*
X127848Y222883D01*
X127794Y222843D01*
X127736Y222803D01*
X127681Y222763D01*
X127630Y222727D01*
X127626Y222723D01*
X127612Y222712D01*
X127590Y222694D01*
X127565Y222668D01*
X127510Y222614D01*
X127485Y222585D01*
X127463Y222555D01*
X127459Y222552D01*
X127455Y222545D01*
X127448Y222530D01*
X127437Y222508D01*
X127426Y222486D01*
X127415Y222461D01*
X127397Y222403D01*
Y222399D01*
X127393Y222392D01*
Y222377D01*
X127390Y222359D01*
X127386Y222334D01*
Y222304D01*
X127383Y222264D01*
Y221835D01*
X128500D01*
Y221500D01*
X125981D01*
Y222668D01*
X125985Y222697D01*
Y222730D01*
X125988Y222807D01*
X125999Y222887D01*
X126010Y222974D01*
X126029Y223054D01*
X126039Y223094D01*
X126050Y223127D01*
Y223131D01*
X126054Y223134D01*
X126065Y223156D01*
X126079Y223189D01*
X126105Y223229D01*
X126138Y223273D01*
X126181Y223320D01*
X126232Y223364D01*
X126291Y223407D01*
X126294D01*
X126298Y223411D01*
X126320Y223426D01*
X126356Y223440D01*
X126403Y223462D01*
X126458Y223480D01*
X126523Y223498D01*
X126593Y223509D01*
X126669Y223513D01*
X126673D01*
X126680D01*
X126695D01*
X126713Y223509D01*
X126738D01*
X126764Y223506D01*
X126826Y223491D01*
X126898Y223469D01*
X126975Y223440D01*
X127051Y223396D01*
X127088Y223367D01*
X127124Y223338D01*
X127128Y223335D01*
X127131Y223331D01*
X127142Y223320D01*
X127153Y223305D01*
X127168Y223287D01*
X127182Y223265D01*
X127200Y223236D01*
X127222Y223207D01*
X127241Y223171D01*
X127259Y223131D01*
X127281Y223087D01*
X127299Y223040D01*
X127313Y222985D01*
X127332Y222931D01*
X127342Y222869D01*
X127353Y222803D01*
X127357Y222810D01*
X127364Y222825D01*
X127379Y222847D01*
X127393Y222876D01*
X127434Y222941D01*
X127459Y222974D01*
X127481Y223003D01*
X127488Y223011D01*
X127506Y223029D01*
X127535Y223058D01*
X127572Y223094D01*
X127623Y223134D01*
X127677Y223182D01*
X127743Y223229D01*
X127816Y223280D01*
X128500Y223713D01*
Y223298D01*
D02*
G37*
G36*
X132519Y114332D02*
X132515Y114303D01*
Y114270D01*
X132512Y114193D01*
X132501Y114113D01*
X132490Y114026D01*
X132472Y113946D01*
X132461Y113906D01*
X132450Y113873D01*
Y113869D01*
X132446Y113866D01*
X132435Y113844D01*
X132421Y113811D01*
X132395Y113771D01*
X132362Y113727D01*
X132319Y113680D01*
X132268Y113636D01*
X132209Y113593D01*
X132206D01*
X132202Y113589D01*
X132180Y113575D01*
X132144Y113560D01*
X132097Y113538D01*
X132042Y113520D01*
X131976Y113502D01*
X131907Y113491D01*
X131831Y113487D01*
X131827D01*
X131820D01*
X131805D01*
X131787Y113491D01*
X131762D01*
X131736Y113494D01*
X131674Y113509D01*
X131602Y113531D01*
X131525Y113560D01*
X131449Y113604D01*
X131412Y113633D01*
X131376Y113662D01*
X131372Y113665D01*
X131369Y113669D01*
X131358Y113680D01*
X131347Y113695D01*
X131332Y113713D01*
X131318Y113735D01*
X131299Y113764D01*
X131278Y113793D01*
X131259Y113829D01*
X131241Y113869D01*
X131219Y113913D01*
X131201Y113960D01*
X131187Y114015D01*
X131168Y114069D01*
X131158Y114131D01*
X131147Y114197D01*
X131143Y114190D01*
X131136Y114175D01*
X131121Y114153D01*
X131106Y114124D01*
X131067Y114059D01*
X131041Y114026D01*
X131019Y113997D01*
X131012Y113989D01*
X130994Y113971D01*
X130965Y113942D01*
X130928Y113906D01*
X130877Y113866D01*
X130823Y113818D01*
X130757Y113771D01*
X130684Y113720D01*
X130000Y113287D01*
Y113702D01*
X130524Y114033D01*
X130528D01*
X130535Y114040D01*
X130546Y114048D01*
X130561Y114059D01*
X130601Y114084D01*
X130651Y114117D01*
X130706Y114157D01*
X130764Y114197D01*
X130819Y114237D01*
X130870Y114273D01*
X130874Y114277D01*
X130888Y114288D01*
X130910Y114306D01*
X130935Y114332D01*
X130990Y114386D01*
X131016Y114415D01*
X131037Y114444D01*
X131041Y114448D01*
X131045Y114455D01*
X131052Y114470D01*
X131063Y114492D01*
X131074Y114514D01*
X131085Y114539D01*
X131103Y114597D01*
Y114601D01*
X131106Y114608D01*
Y114623D01*
X131110Y114641D01*
X131114Y114666D01*
Y114696D01*
X131117Y114736D01*
Y115165D01*
X130000D01*
Y115500D01*
X132519D01*
Y114332D01*
D02*
G37*
G36*
X130069Y113130D02*
X130102Y113127D01*
X130138Y113119D01*
X130175Y113112D01*
X130215Y113098D01*
X130218D01*
X130222Y113094D01*
X130244Y113087D01*
X130277Y113072D01*
X130320Y113050D01*
X130371Y113021D01*
X130429Y112985D01*
X130488Y112945D01*
X130550Y112894D01*
X130553D01*
X130557Y112887D01*
X130579Y112868D01*
X130612Y112836D01*
X130659Y112788D01*
X130713Y112734D01*
X130779Y112664D01*
X130852Y112581D01*
X130928Y112490D01*
X130932Y112486D01*
X130943Y112472D01*
X130961Y112450D01*
X130983Y112424D01*
X131012Y112391D01*
X131045Y112351D01*
X131081Y112311D01*
X131121Y112264D01*
X131208Y112173D01*
X131296Y112082D01*
X131340Y112038D01*
X131383Y111998D01*
X131423Y111962D01*
X131463Y111933D01*
X131467D01*
X131471Y111925D01*
X131481Y111918D01*
X131496Y111911D01*
X131536Y111885D01*
X131583Y111856D01*
X131642Y111831D01*
X131703Y111805D01*
X131773Y111791D01*
X131838Y111784D01*
X131842D01*
X131845D01*
X131867Y111787D01*
X131904Y111791D01*
X131944Y111802D01*
X131995Y111816D01*
X132046Y111842D01*
X132097Y111875D01*
X132148Y111918D01*
X132155Y111925D01*
X132169Y111944D01*
X132188Y111969D01*
X132213Y112009D01*
X132235Y112060D01*
X132257Y112118D01*
X132271Y112188D01*
X132275Y112264D01*
Y112286D01*
X132271Y112301D01*
X132268Y112344D01*
X132257Y112395D01*
X132242Y112450D01*
X132217Y112512D01*
X132184Y112570D01*
X132140Y112624D01*
X132133Y112632D01*
X132115Y112646D01*
X132086Y112668D01*
X132042Y112690D01*
X131991Y112715D01*
X131925Y112737D01*
X131853Y112752D01*
X131769Y112759D01*
X131802Y113076D01*
X131805D01*
X131816Y113072D01*
X131834D01*
X131860Y113068D01*
X131889Y113061D01*
X131922Y113054D01*
X131962Y113043D01*
X132002Y113032D01*
X132089Y113003D01*
X132177Y112959D01*
X132220Y112934D01*
X132264Y112901D01*
X132304Y112868D01*
X132341Y112832D01*
X132344Y112828D01*
X132348Y112821D01*
X132359Y112810D01*
X132370Y112792D01*
X132384Y112770D01*
X132399Y112745D01*
X132417Y112715D01*
X132435Y112679D01*
X132453Y112639D01*
X132472Y112595D01*
X132486Y112548D01*
X132501Y112497D01*
X132512Y112442D01*
X132522Y112384D01*
X132526Y112322D01*
X132530Y112257D01*
Y112220D01*
X132526Y112195D01*
X132522Y112166D01*
X132519Y112129D01*
X132512Y112089D01*
X132504Y112049D01*
X132479Y111955D01*
X132442Y111860D01*
X132421Y111813D01*
X132395Y111765D01*
X132362Y111722D01*
X132326Y111682D01*
X132322Y111678D01*
X132319Y111671D01*
X132304Y111663D01*
X132290Y111649D01*
X132271Y111631D01*
X132246Y111612D01*
X132220Y111594D01*
X132188Y111573D01*
X132118Y111536D01*
X132031Y111500D01*
X131987Y111485D01*
X131936Y111478D01*
X131886Y111471D01*
X131831Y111467D01*
X131824D01*
X131805D01*
X131776Y111471D01*
X131736Y111474D01*
X131693Y111481D01*
X131642Y111496D01*
X131587Y111511D01*
X131532Y111532D01*
X131525Y111536D01*
X131507Y111543D01*
X131478Y111558D01*
X131438Y111580D01*
X131394Y111609D01*
X131340Y111645D01*
X131285Y111689D01*
X131223Y111740D01*
X131216Y111747D01*
X131194Y111765D01*
X131176Y111784D01*
X131158Y111802D01*
X131136Y111824D01*
X131106Y111853D01*
X131077Y111882D01*
X131045Y111918D01*
X131008Y111955D01*
X130968Y111998D01*
X130928Y112046D01*
X130881Y112097D01*
X130833Y112155D01*
X130782Y112213D01*
X130779Y112217D01*
X130772Y112224D01*
X130761Y112239D01*
X130746Y112257D01*
X130724Y112279D01*
X130702Y112304D01*
X130655Y112362D01*
X130601Y112424D01*
X130546Y112483D01*
X130499Y112533D01*
X130480Y112555D01*
X130462Y112574D01*
X130459Y112577D01*
X130448Y112588D01*
X130433Y112603D01*
X130411Y112621D01*
X130386Y112639D01*
X130360Y112661D01*
X130298Y112705D01*
Y111463D01*
X130000D01*
Y113134D01*
X130004D01*
X130018D01*
X130040D01*
X130069Y113130D01*
D02*
G37*
G36*
X132062Y165832D02*
X132059Y165803D01*
Y165770D01*
X132055Y165693D01*
X132044Y165613D01*
X132033Y165526D01*
X132015Y165446D01*
X132004Y165406D01*
X131993Y165373D01*
Y165369D01*
X131990Y165366D01*
X131979Y165344D01*
X131964Y165311D01*
X131939Y165271D01*
X131906Y165227D01*
X131862Y165180D01*
X131811Y165136D01*
X131753Y165093D01*
X131749D01*
X131746Y165089D01*
X131724Y165075D01*
X131688Y165060D01*
X131640Y165038D01*
X131586Y165020D01*
X131520Y165002D01*
X131451Y164991D01*
X131375Y164987D01*
X131371D01*
X131364D01*
X131349D01*
X131331Y164991D01*
X131305D01*
X131280Y164994D01*
X131218Y165009D01*
X131145Y165031D01*
X131069Y165060D01*
X130992Y165104D01*
X130956Y165133D01*
X130920Y165162D01*
X130916Y165165D01*
X130912Y165169D01*
X130901Y165180D01*
X130890Y165195D01*
X130876Y165213D01*
X130861Y165235D01*
X130843Y165264D01*
X130821Y165293D01*
X130803Y165329D01*
X130785Y165369D01*
X130763Y165413D01*
X130745Y165460D01*
X130730Y165515D01*
X130712Y165569D01*
X130701Y165631D01*
X130690Y165697D01*
X130687Y165690D01*
X130679Y165675D01*
X130665Y165653D01*
X130650Y165624D01*
X130610Y165559D01*
X130585Y165526D01*
X130563Y165497D01*
X130555Y165489D01*
X130537Y165471D01*
X130508Y165442D01*
X130472Y165406D01*
X130421Y165366D01*
X130366Y165318D01*
X130301Y165271D01*
X130228Y165220D01*
X129544Y164787D01*
Y165202D01*
X130068Y165533D01*
X130071D01*
X130079Y165540D01*
X130090Y165548D01*
X130104Y165559D01*
X130144Y165584D01*
X130195Y165617D01*
X130250Y165657D01*
X130308Y165697D01*
X130363Y165737D01*
X130414Y165773D01*
X130417Y165777D01*
X130432Y165788D01*
X130454Y165806D01*
X130479Y165832D01*
X130534Y165886D01*
X130559Y165915D01*
X130581Y165944D01*
X130585Y165948D01*
X130588Y165955D01*
X130596Y165970D01*
X130606Y165992D01*
X130617Y166014D01*
X130628Y166039D01*
X130647Y166097D01*
Y166101D01*
X130650Y166108D01*
Y166123D01*
X130654Y166141D01*
X130657Y166166D01*
Y166196D01*
X130661Y166236D01*
Y166665D01*
X129544D01*
Y167000D01*
X132062D01*
Y165832D01*
D02*
G37*
G36*
X130250Y164277D02*
X130246D01*
X130239Y164274D01*
X130224Y164270D01*
X130206Y164266D01*
X130184Y164263D01*
X130159Y164255D01*
X130104Y164237D01*
X130039Y164212D01*
X129977Y164179D01*
X129919Y164143D01*
X129868Y164099D01*
X129864Y164092D01*
X129849Y164077D01*
X129831Y164048D01*
X129813Y164012D01*
X129791Y163968D01*
X129773Y163913D01*
X129758Y163851D01*
X129755Y163786D01*
Y163764D01*
X129758Y163750D01*
X129762Y163709D01*
X129773Y163658D01*
X129791Y163600D01*
X129817Y163538D01*
X129853Y163477D01*
X129904Y163418D01*
X129911Y163411D01*
X129933Y163393D01*
X129966Y163371D01*
X130009Y163342D01*
X130064Y163313D01*
X130126Y163291D01*
X130199Y163273D01*
X130279Y163265D01*
X130282D01*
X130290D01*
X130301D01*
X130315Y163269D01*
X130355Y163273D01*
X130403Y163284D01*
X130461Y163298D01*
X130519Y163324D01*
X130577Y163360D01*
X130632Y163407D01*
X130639Y163415D01*
X130654Y163433D01*
X130676Y163462D01*
X130701Y163502D01*
X130727Y163553D01*
X130748Y163615D01*
X130763Y163684D01*
X130770Y163760D01*
Y163793D01*
X130767Y163819D01*
X130763Y163851D01*
X130756Y163888D01*
X130748Y163932D01*
X130738Y163979D01*
X131010Y163942D01*
Y163924D01*
X131007Y163910D01*
Y163862D01*
X131014Y163822D01*
X131021Y163775D01*
X131032Y163720D01*
X131051Y163658D01*
X131076Y163600D01*
X131109Y163538D01*
Y163535D01*
X131113Y163531D01*
X131127Y163513D01*
X131152Y163487D01*
X131185Y163458D01*
X131233Y163429D01*
X131287Y163404D01*
X131349Y163385D01*
X131386Y163378D01*
X131425D01*
X131429D01*
X131433D01*
X131455D01*
X131484Y163385D01*
X131524Y163393D01*
X131568Y163407D01*
X131615Y163426D01*
X131662Y163455D01*
X131706Y163495D01*
X131709Y163498D01*
X131724Y163517D01*
X131742Y163542D01*
X131764Y163575D01*
X131782Y163619D01*
X131800Y163669D01*
X131815Y163728D01*
X131819Y163793D01*
Y163822D01*
X131811Y163855D01*
X131804Y163899D01*
X131790Y163946D01*
X131771Y163993D01*
X131742Y164044D01*
X131706Y164092D01*
X131702Y164095D01*
X131684Y164110D01*
X131658Y164132D01*
X131622Y164157D01*
X131575Y164183D01*
X131517Y164208D01*
X131447Y164230D01*
X131367Y164245D01*
X131422Y164554D01*
X131425D01*
X131436Y164550D01*
X131451Y164547D01*
X131473Y164543D01*
X131498Y164536D01*
X131527Y164525D01*
X131597Y164503D01*
X131677Y164467D01*
X131757Y164423D01*
X131833Y164368D01*
X131902Y164299D01*
X131906Y164295D01*
X131910Y164288D01*
X131917Y164277D01*
X131928Y164263D01*
X131942Y164245D01*
X131957Y164219D01*
X131972Y164194D01*
X131990Y164161D01*
X132019Y164088D01*
X132048Y164004D01*
X132066Y163906D01*
X132073Y163855D01*
Y163764D01*
X132070Y163724D01*
X132062Y163677D01*
X132052Y163619D01*
X132033Y163553D01*
X132012Y163487D01*
X131982Y163422D01*
Y163418D01*
X131979Y163415D01*
X131968Y163393D01*
X131946Y163360D01*
X131921Y163324D01*
X131884Y163280D01*
X131844Y163236D01*
X131797Y163193D01*
X131742Y163156D01*
X131735Y163153D01*
X131717Y163142D01*
X131684Y163127D01*
X131644Y163109D01*
X131597Y163091D01*
X131542Y163076D01*
X131480Y163065D01*
X131418Y163062D01*
X131411D01*
X131389D01*
X131360Y163065D01*
X131320Y163073D01*
X131273Y163083D01*
X131222Y163102D01*
X131171Y163123D01*
X131120Y163153D01*
X131113Y163156D01*
X131098Y163167D01*
X131072Y163189D01*
X131043Y163218D01*
X131010Y163254D01*
X130974Y163298D01*
X130941Y163349D01*
X130909Y163411D01*
Y163407D01*
X130905Y163400D01*
X130901Y163389D01*
X130898Y163375D01*
X130883Y163335D01*
X130861Y163284D01*
X130832Y163225D01*
X130796Y163167D01*
X130748Y163112D01*
X130694Y163062D01*
X130687Y163058D01*
X130665Y163043D01*
X130628Y163022D01*
X130581Y163000D01*
X130523Y162978D01*
X130454Y162956D01*
X130374Y162941D01*
X130286Y162938D01*
X130282D01*
X130272D01*
X130253D01*
X130232Y162941D01*
X130202Y162945D01*
X130170Y162952D01*
X130133Y162960D01*
X130093Y162967D01*
X130006Y162996D01*
X129959Y163018D01*
X129915Y163040D01*
X129868Y163069D01*
X129820Y163102D01*
X129773Y163138D01*
X129729Y163182D01*
X129726Y163185D01*
X129718Y163193D01*
X129707Y163207D01*
X129693Y163225D01*
X129675Y163247D01*
X129657Y163276D01*
X129635Y163309D01*
X129616Y163349D01*
X129595Y163389D01*
X129573Y163436D01*
X129554Y163484D01*
X129536Y163538D01*
X129522Y163597D01*
X129511Y163658D01*
X129504Y163720D01*
X129500Y163790D01*
Y163822D01*
X129504Y163844D01*
X129507Y163873D01*
X129511Y163906D01*
X129518Y163942D01*
X129525Y163982D01*
X129547Y164070D01*
X129584Y164161D01*
X129605Y164208D01*
X129631Y164252D01*
X129664Y164295D01*
X129697Y164339D01*
X129700Y164343D01*
X129707Y164350D01*
X129718Y164361D01*
X129733Y164372D01*
X129751Y164390D01*
X129777Y164408D01*
X129802Y164430D01*
X129835Y164452D01*
X129871Y164474D01*
X129908Y164496D01*
X129995Y164536D01*
X130097Y164568D01*
X130151Y164579D01*
X130210Y164587D01*
X130250Y164277D01*
D02*
G37*
G36*
X130519Y264332D02*
X130515Y264302D01*
Y264270D01*
X130512Y264193D01*
X130501Y264113D01*
X130490Y264026D01*
X130472Y263946D01*
X130461Y263906D01*
X130450Y263873D01*
Y263869D01*
X130446Y263866D01*
X130435Y263844D01*
X130421Y263811D01*
X130395Y263771D01*
X130362Y263727D01*
X130319Y263680D01*
X130268Y263636D01*
X130209Y263593D01*
X130206D01*
X130202Y263589D01*
X130180Y263575D01*
X130144Y263560D01*
X130097Y263538D01*
X130042Y263520D01*
X129976Y263502D01*
X129907Y263491D01*
X129831Y263487D01*
X129827D01*
X129820D01*
X129805D01*
X129787Y263491D01*
X129762D01*
X129736Y263494D01*
X129674Y263509D01*
X129602Y263531D01*
X129525Y263560D01*
X129449Y263604D01*
X129412Y263633D01*
X129376Y263662D01*
X129372Y263666D01*
X129369Y263669D01*
X129358Y263680D01*
X129347Y263695D01*
X129332Y263713D01*
X129318Y263735D01*
X129299Y263764D01*
X129278Y263793D01*
X129259Y263829D01*
X129241Y263869D01*
X129219Y263913D01*
X129201Y263960D01*
X129187Y264015D01*
X129168Y264070D01*
X129157Y264131D01*
X129147Y264197D01*
X129143Y264190D01*
X129136Y264175D01*
X129121Y264153D01*
X129106Y264124D01*
X129067Y264059D01*
X129041Y264026D01*
X129019Y263997D01*
X129012Y263989D01*
X128994Y263971D01*
X128965Y263942D01*
X128928Y263906D01*
X128877Y263866D01*
X128823Y263818D01*
X128757Y263771D01*
X128684Y263720D01*
X128000Y263287D01*
Y263702D01*
X128524Y264033D01*
X128528D01*
X128535Y264040D01*
X128546Y264048D01*
X128560Y264059D01*
X128601Y264084D01*
X128651Y264117D01*
X128706Y264157D01*
X128764Y264197D01*
X128819Y264237D01*
X128870Y264273D01*
X128874Y264277D01*
X128888Y264288D01*
X128910Y264306D01*
X128935Y264332D01*
X128990Y264386D01*
X129016Y264415D01*
X129037Y264444D01*
X129041Y264448D01*
X129045Y264455D01*
X129052Y264470D01*
X129063Y264492D01*
X129074Y264514D01*
X129085Y264539D01*
X129103Y264597D01*
Y264601D01*
X129106Y264608D01*
Y264623D01*
X129110Y264641D01*
X129114Y264667D01*
Y264696D01*
X129117Y264736D01*
Y265165D01*
X128000D01*
Y265500D01*
X130519D01*
Y264332D01*
D02*
G37*
G36*
Y262042D02*
Y261791D01*
X128888D01*
Y261449D01*
X128604D01*
Y261791D01*
X128000D01*
Y262100D01*
X128604D01*
Y263196D01*
X128888D01*
X130519Y262042D01*
D02*
G37*
G36*
X243886Y175496D02*
X243919D01*
X243959Y175493D01*
X244003Y175486D01*
X244054Y175478D01*
X244159Y175460D01*
X244268Y175431D01*
X244378Y175391D01*
X244428Y175365D01*
X244479Y175336D01*
X244483Y175333D01*
X244490Y175329D01*
X244505Y175318D01*
X244519Y175303D01*
X244541Y175289D01*
X244567Y175267D01*
X244596Y175242D01*
X244625Y175213D01*
X244654Y175180D01*
X244687Y175147D01*
X244753Y175063D01*
X244814Y174965D01*
X244869Y174856D01*
Y174852D01*
X244876Y174841D01*
X244880Y174823D01*
X244891Y174801D01*
X244898Y174772D01*
X244909Y174736D01*
X244924Y174696D01*
X244935Y174652D01*
X244945Y174605D01*
X244960Y174550D01*
X244978Y174437D01*
X244993Y174310D01*
X245000Y174179D01*
Y174175D01*
Y174161D01*
Y174139D01*
X244996Y174113D01*
Y174077D01*
X244993Y174040D01*
X244989Y173993D01*
X244982Y173946D01*
X244964Y173840D01*
X244938Y173724D01*
X244902Y173607D01*
X244851Y173494D01*
X244847Y173491D01*
X244844Y173480D01*
X244836Y173465D01*
X244822Y173447D01*
X244807Y173422D01*
X244789Y173392D01*
X244742Y173327D01*
X244680Y173254D01*
X244607Y173181D01*
X244523Y173108D01*
X244425Y173047D01*
X244421Y173043D01*
X244410Y173039D01*
X244396Y173032D01*
X244378Y173021D01*
X244349Y173010D01*
X244319Y172999D01*
X244283Y172985D01*
X244243Y172970D01*
X244199Y172956D01*
X244152Y172941D01*
X244050Y172919D01*
X243934Y172901D01*
X243813Y172894D01*
X243777D01*
X243752Y172897D01*
X243719Y172901D01*
X243679Y172905D01*
X243639Y172908D01*
X243591Y172919D01*
X243493Y172941D01*
X243384Y172974D01*
X243329Y172996D01*
X243278Y173021D01*
X243227Y173054D01*
X243176Y173087D01*
X243173Y173090D01*
X243165Y173094D01*
X243151Y173105D01*
X243133Y173123D01*
X243114Y173141D01*
X243089Y173167D01*
X243063Y173196D01*
X243034Y173225D01*
X243005Y173261D01*
X242976Y173305D01*
X242943Y173349D01*
X242914Y173396D01*
X242889Y173451D01*
X242860Y173505D01*
X242838Y173564D01*
X242816Y173629D01*
X243144Y173705D01*
Y173702D01*
X243147Y173695D01*
X243155Y173680D01*
X243162Y173662D01*
X243169Y173640D01*
X243180Y173611D01*
X243209Y173553D01*
X243246Y173487D01*
X243289Y173422D01*
X243344Y173360D01*
X243402Y173305D01*
X243409Y173298D01*
X243431Y173283D01*
X243468Y173265D01*
X243515Y173240D01*
X243577Y173218D01*
X243646Y173196D01*
X243730Y173181D01*
X243821Y173178D01*
X243850D01*
X243868Y173181D01*
X243894D01*
X243923Y173185D01*
X243992Y173196D01*
X244068Y173211D01*
X244148Y173236D01*
X244232Y173272D01*
X244308Y173320D01*
X244312D01*
X244316Y173327D01*
X244341Y173345D01*
X244374Y173374D01*
X244414Y173418D01*
X244461Y173473D01*
X244505Y173534D01*
X244545Y173611D01*
X244581Y173695D01*
Y173698D01*
X244585Y173705D01*
X244589Y173716D01*
X244592Y173735D01*
X244600Y173757D01*
X244607Y173782D01*
X244618Y173844D01*
X244632Y173917D01*
X244647Y173997D01*
X244654Y174084D01*
X244658Y174179D01*
Y174182D01*
Y174193D01*
Y174212D01*
Y174233D01*
X244654Y174259D01*
Y174292D01*
X244651Y174328D01*
X244647Y174368D01*
X244636Y174455D01*
X244618Y174550D01*
X244596Y174645D01*
X244567Y174739D01*
Y174743D01*
X244563Y174750D01*
X244556Y174761D01*
X244549Y174779D01*
X244527Y174823D01*
X244494Y174874D01*
X244454Y174932D01*
X244403Y174994D01*
X244345Y175049D01*
X244276Y175100D01*
X244272D01*
X244265Y175103D01*
X244254Y175110D01*
X244239Y175118D01*
X244221Y175125D01*
X244199Y175136D01*
X244148Y175158D01*
X244083Y175180D01*
X244010Y175198D01*
X243930Y175213D01*
X243846Y175216D01*
X243821D01*
X243799Y175213D01*
X243773D01*
X243748Y175209D01*
X243682Y175194D01*
X243606Y175176D01*
X243530Y175147D01*
X243449Y175107D01*
X243409Y175085D01*
X243373Y175056D01*
X243369Y175052D01*
X243366Y175049D01*
X243355Y175038D01*
X243340Y175027D01*
X243326Y175009D01*
X243307Y174987D01*
X243286Y174965D01*
X243267Y174936D01*
X243246Y174903D01*
X243220Y174867D01*
X243198Y174830D01*
X243176Y174787D01*
X243158Y174739D01*
X243140Y174688D01*
X243122Y174634D01*
X243107Y174575D01*
X242772Y174659D01*
Y174663D01*
X242776Y174677D01*
X242783Y174699D01*
X242794Y174728D01*
X242805Y174761D01*
X242820Y174801D01*
X242838Y174845D01*
X242860Y174892D01*
X242911Y174994D01*
X242976Y175096D01*
X243016Y175147D01*
X243056Y175198D01*
X243100Y175242D01*
X243151Y175285D01*
X243155Y175289D01*
X243162Y175296D01*
X243180Y175303D01*
X243198Y175318D01*
X243227Y175336D01*
X243256Y175354D01*
X243297Y175373D01*
X243337Y175391D01*
X243384Y175413D01*
X243435Y175431D01*
X243489Y175449D01*
X243548Y175467D01*
X243609Y175482D01*
X243675Y175489D01*
X243744Y175496D01*
X243817Y175500D01*
X243857D01*
X243886Y175496D01*
D02*
G37*
G36*
X241633Y173487D02*
X241637Y173491D01*
X241655Y173505D01*
X241677Y173527D01*
X241713Y173553D01*
X241753Y173585D01*
X241804Y173622D01*
X241862Y173662D01*
X241928Y173702D01*
X241932D01*
X241935Y173705D01*
X241957Y173720D01*
X241993Y173738D01*
X242037Y173760D01*
X242088Y173786D01*
X242143Y173811D01*
X242197Y173837D01*
X242252Y173858D01*
Y173560D01*
X242248D01*
X242241Y173553D01*
X242226Y173549D01*
X242208Y173538D01*
X242186Y173527D01*
X242161Y173513D01*
X242099Y173476D01*
X242026Y173436D01*
X241953Y173385D01*
X241877Y173327D01*
X241800Y173265D01*
X241797Y173261D01*
X241793Y173258D01*
X241782Y173247D01*
X241768Y173236D01*
X241735Y173199D01*
X241691Y173156D01*
X241648Y173105D01*
X241600Y173047D01*
X241560Y172988D01*
X241524Y172926D01*
X241324D01*
Y175456D01*
X241633D01*
Y173487D01*
D02*
G37*
G36*
X243886Y208996D02*
X243919D01*
X243959Y208993D01*
X244003Y208985D01*
X244054Y208978D01*
X244159Y208960D01*
X244268Y208931D01*
X244378Y208891D01*
X244428Y208865D01*
X244479Y208836D01*
X244483Y208833D01*
X244490Y208829D01*
X244505Y208818D01*
X244519Y208804D01*
X244541Y208789D01*
X244567Y208767D01*
X244596Y208742D01*
X244625Y208713D01*
X244654Y208680D01*
X244687Y208647D01*
X244753Y208563D01*
X244814Y208465D01*
X244869Y208356D01*
Y208352D01*
X244876Y208341D01*
X244880Y208323D01*
X244891Y208301D01*
X244898Y208272D01*
X244909Y208236D01*
X244924Y208196D01*
X244935Y208152D01*
X244945Y208105D01*
X244960Y208050D01*
X244978Y207937D01*
X244993Y207810D01*
X245000Y207679D01*
Y207675D01*
Y207661D01*
Y207639D01*
X244996Y207613D01*
Y207577D01*
X244993Y207540D01*
X244989Y207493D01*
X244982Y207446D01*
X244964Y207340D01*
X244938Y207224D01*
X244902Y207107D01*
X244851Y206994D01*
X244847Y206991D01*
X244844Y206980D01*
X244836Y206965D01*
X244822Y206947D01*
X244807Y206922D01*
X244789Y206892D01*
X244742Y206827D01*
X244680Y206754D01*
X244607Y206681D01*
X244523Y206609D01*
X244425Y206547D01*
X244421Y206543D01*
X244410Y206539D01*
X244396Y206532D01*
X244378Y206521D01*
X244349Y206510D01*
X244319Y206499D01*
X244283Y206485D01*
X244243Y206470D01*
X244199Y206456D01*
X244152Y206441D01*
X244050Y206419D01*
X243934Y206401D01*
X243813Y206394D01*
X243777D01*
X243752Y206397D01*
X243719Y206401D01*
X243679Y206405D01*
X243639Y206408D01*
X243591Y206419D01*
X243493Y206441D01*
X243384Y206474D01*
X243329Y206496D01*
X243278Y206521D01*
X243227Y206554D01*
X243176Y206587D01*
X243173Y206590D01*
X243165Y206594D01*
X243151Y206605D01*
X243133Y206623D01*
X243114Y206641D01*
X243089Y206667D01*
X243063Y206696D01*
X243034Y206725D01*
X243005Y206761D01*
X242976Y206805D01*
X242943Y206849D01*
X242914Y206896D01*
X242889Y206951D01*
X242860Y207005D01*
X242838Y207064D01*
X242816Y207129D01*
X243144Y207206D01*
Y207202D01*
X243147Y207195D01*
X243155Y207180D01*
X243162Y207162D01*
X243169Y207140D01*
X243180Y207111D01*
X243209Y207053D01*
X243246Y206987D01*
X243289Y206922D01*
X243344Y206860D01*
X243402Y206805D01*
X243409Y206798D01*
X243431Y206783D01*
X243468Y206765D01*
X243515Y206740D01*
X243577Y206718D01*
X243646Y206696D01*
X243730Y206681D01*
X243821Y206678D01*
X243850D01*
X243868Y206681D01*
X243894D01*
X243923Y206685D01*
X243992Y206696D01*
X244068Y206711D01*
X244148Y206736D01*
X244232Y206772D01*
X244308Y206820D01*
X244312D01*
X244316Y206827D01*
X244341Y206845D01*
X244374Y206874D01*
X244414Y206918D01*
X244461Y206973D01*
X244505Y207034D01*
X244545Y207111D01*
X244581Y207195D01*
Y207198D01*
X244585Y207206D01*
X244589Y207216D01*
X244592Y207235D01*
X244600Y207257D01*
X244607Y207282D01*
X244618Y207344D01*
X244632Y207417D01*
X244647Y207497D01*
X244654Y207584D01*
X244658Y207679D01*
Y207682D01*
Y207693D01*
Y207712D01*
Y207733D01*
X244654Y207759D01*
Y207792D01*
X244651Y207828D01*
X244647Y207868D01*
X244636Y207955D01*
X244618Y208050D01*
X244596Y208145D01*
X244567Y208239D01*
Y208243D01*
X244563Y208250D01*
X244556Y208261D01*
X244549Y208279D01*
X244527Y208323D01*
X244494Y208374D01*
X244454Y208432D01*
X244403Y208494D01*
X244345Y208549D01*
X244276Y208600D01*
X244272D01*
X244265Y208603D01*
X244254Y208611D01*
X244239Y208618D01*
X244221Y208625D01*
X244199Y208636D01*
X244148Y208658D01*
X244083Y208680D01*
X244010Y208698D01*
X243930Y208713D01*
X243846Y208716D01*
X243821D01*
X243799Y208713D01*
X243773D01*
X243748Y208709D01*
X243682Y208694D01*
X243606Y208676D01*
X243530Y208647D01*
X243449Y208607D01*
X243409Y208585D01*
X243373Y208556D01*
X243369Y208552D01*
X243366Y208549D01*
X243355Y208538D01*
X243340Y208527D01*
X243326Y208509D01*
X243307Y208487D01*
X243286Y208465D01*
X243267Y208436D01*
X243246Y208403D01*
X243220Y208367D01*
X243198Y208330D01*
X243176Y208287D01*
X243158Y208239D01*
X243140Y208188D01*
X243122Y208134D01*
X243107Y208075D01*
X242772Y208159D01*
Y208163D01*
X242776Y208177D01*
X242783Y208199D01*
X242794Y208228D01*
X242805Y208261D01*
X242820Y208301D01*
X242838Y208345D01*
X242860Y208392D01*
X242911Y208494D01*
X242976Y208596D01*
X243016Y208647D01*
X243056Y208698D01*
X243100Y208742D01*
X243151Y208785D01*
X243155Y208789D01*
X243162Y208796D01*
X243180Y208804D01*
X243198Y208818D01*
X243227Y208836D01*
X243256Y208854D01*
X243297Y208873D01*
X243337Y208891D01*
X243384Y208913D01*
X243435Y208931D01*
X243489Y208949D01*
X243548Y208967D01*
X243609Y208982D01*
X243675Y208989D01*
X243744Y208996D01*
X243817Y209000D01*
X243857D01*
X243886Y208996D01*
D02*
G37*
G36*
X242532Y208953D02*
Y208938D01*
Y208916D01*
X242529Y208887D01*
X242525Y208854D01*
X242517Y208818D01*
X242510Y208782D01*
X242496Y208742D01*
Y208738D01*
X242492Y208734D01*
X242485Y208713D01*
X242470Y208680D01*
X242448Y208636D01*
X242419Y208585D01*
X242383Y208527D01*
X242343Y208469D01*
X242292Y208407D01*
Y208403D01*
X242285Y208399D01*
X242266Y208378D01*
X242234Y208345D01*
X242186Y208297D01*
X242132Y208243D01*
X242063Y208177D01*
X241979Y208105D01*
X241888Y208028D01*
X241884Y208025D01*
X241870Y208014D01*
X241848Y207995D01*
X241822Y207974D01*
X241790Y207944D01*
X241750Y207912D01*
X241709Y207875D01*
X241662Y207835D01*
X241571Y207748D01*
X241480Y207661D01*
X241437Y207617D01*
X241396Y207573D01*
X241360Y207533D01*
X241331Y207493D01*
Y207489D01*
X241324Y207486D01*
X241316Y207475D01*
X241309Y207460D01*
X241284Y207420D01*
X241254Y207373D01*
X241229Y207315D01*
X241203Y207253D01*
X241189Y207184D01*
X241182Y207118D01*
Y207115D01*
Y207111D01*
X241185Y207089D01*
X241189Y207053D01*
X241200Y207013D01*
X241214Y206962D01*
X241240Y206911D01*
X241273Y206860D01*
X241316Y206809D01*
X241324Y206802D01*
X241342Y206787D01*
X241367Y206769D01*
X241407Y206743D01*
X241458Y206721D01*
X241517Y206699D01*
X241586Y206685D01*
X241662Y206681D01*
X241684D01*
X241699Y206685D01*
X241742Y206689D01*
X241793Y206699D01*
X241848Y206714D01*
X241910Y206740D01*
X241968Y206772D01*
X242022Y206816D01*
X242030Y206823D01*
X242044Y206841D01*
X242066Y206871D01*
X242088Y206914D01*
X242113Y206965D01*
X242135Y207031D01*
X242150Y207104D01*
X242157Y207187D01*
X242474Y207155D01*
Y207151D01*
X242470Y207140D01*
Y207122D01*
X242467Y207096D01*
X242459Y207067D01*
X242452Y207034D01*
X242441Y206994D01*
X242430Y206954D01*
X242401Y206867D01*
X242357Y206780D01*
X242332Y206736D01*
X242299Y206692D01*
X242266Y206652D01*
X242230Y206616D01*
X242226Y206612D01*
X242219Y206609D01*
X242208Y206598D01*
X242190Y206587D01*
X242168Y206572D01*
X242143Y206558D01*
X242113Y206539D01*
X242077Y206521D01*
X242037Y206503D01*
X241993Y206485D01*
X241946Y206470D01*
X241895Y206456D01*
X241841Y206445D01*
X241782Y206434D01*
X241720Y206430D01*
X241655Y206427D01*
X241618D01*
X241593Y206430D01*
X241564Y206434D01*
X241528Y206437D01*
X241487Y206445D01*
X241447Y206452D01*
X241353Y206477D01*
X241258Y206514D01*
X241211Y206536D01*
X241163Y206561D01*
X241120Y206594D01*
X241080Y206630D01*
X241076Y206634D01*
X241069Y206638D01*
X241061Y206652D01*
X241047Y206667D01*
X241029Y206685D01*
X241011Y206711D01*
X240992Y206736D01*
X240971Y206769D01*
X240934Y206838D01*
X240898Y206925D01*
X240883Y206969D01*
X240876Y207020D01*
X240869Y207071D01*
X240865Y207125D01*
Y207133D01*
Y207151D01*
X240869Y207180D01*
X240872Y207220D01*
X240880Y207264D01*
X240894Y207315D01*
X240909Y207369D01*
X240931Y207424D01*
X240934Y207431D01*
X240941Y207449D01*
X240956Y207478D01*
X240978Y207519D01*
X241007Y207562D01*
X241043Y207617D01*
X241087Y207671D01*
X241138Y207733D01*
X241145Y207741D01*
X241163Y207762D01*
X241182Y207781D01*
X241200Y207799D01*
X241222Y207821D01*
X241251Y207850D01*
X241280Y207879D01*
X241316Y207912D01*
X241353Y207948D01*
X241396Y207988D01*
X241444Y208028D01*
X241495Y208075D01*
X241553Y208123D01*
X241611Y208174D01*
X241615Y208177D01*
X241622Y208185D01*
X241637Y208196D01*
X241655Y208210D01*
X241677Y208232D01*
X241702Y208254D01*
X241760Y208301D01*
X241822Y208356D01*
X241880Y208410D01*
X241932Y208458D01*
X241953Y208476D01*
X241971Y208494D01*
X241975Y208498D01*
X241986Y208509D01*
X242001Y208523D01*
X242019Y208545D01*
X242037Y208571D01*
X242059Y208596D01*
X242103Y208658D01*
X240861D01*
Y208956D01*
X242532D01*
Y208953D01*
D02*
G37*
G36*
X260163Y249577D02*
X260192Y249573D01*
X260225Y249570D01*
X260265Y249562D01*
X260305Y249555D01*
X260399Y249533D01*
X260498Y249497D01*
X260549Y249475D01*
X260596Y249446D01*
X260647Y249417D01*
X260694Y249380D01*
X260698Y249377D01*
X260709Y249369D01*
X260723Y249355D01*
X260742Y249337D01*
X260763Y249311D01*
X260792Y249282D01*
X260818Y249246D01*
X260847Y249205D01*
X260876Y249162D01*
X260902Y249111D01*
X260927Y249056D01*
X260953Y248998D01*
X260971Y248936D01*
X260985Y248867D01*
X260996Y248794D01*
X261000Y248718D01*
Y248685D01*
X260996Y248659D01*
X260993Y248630D01*
X260989Y248598D01*
X260985Y248557D01*
X260975Y248517D01*
X260953Y248427D01*
X260920Y248336D01*
X260898Y248288D01*
X260873Y248241D01*
X260843Y248197D01*
X260811Y248153D01*
X260807Y248150D01*
X260804Y248143D01*
X260789Y248135D01*
X260774Y248121D01*
X260756Y248103D01*
X260734Y248084D01*
X260705Y248062D01*
X260672Y248044D01*
X260640Y248023D01*
X260600Y248001D01*
X260512Y247961D01*
X260410Y247928D01*
X260356Y247917D01*
X260297Y247910D01*
X260272Y248234D01*
X260276D01*
X260283D01*
X260294Y248237D01*
X260312Y248241D01*
X260352Y248252D01*
X260407Y248266D01*
X260461Y248288D01*
X260523Y248317D01*
X260578Y248354D01*
X260629Y248397D01*
X260632Y248405D01*
X260647Y248419D01*
X260665Y248448D01*
X260687Y248488D01*
X260709Y248532D01*
X260727Y248587D01*
X260742Y248649D01*
X260745Y248718D01*
Y248740D01*
X260742Y248754D01*
X260738Y248798D01*
X260723Y248849D01*
X260705Y248911D01*
X260676Y248973D01*
X260632Y249038D01*
X260607Y249067D01*
X260578Y249096D01*
X260574Y249100D01*
X260571Y249103D01*
X260560Y249111D01*
X260549Y249122D01*
X260509Y249147D01*
X260458Y249176D01*
X260396Y249202D01*
X260319Y249227D01*
X260228Y249246D01*
X260181Y249253D01*
X260130D01*
X260126D01*
X260119D01*
X260105D01*
X260086Y249249D01*
X260065D01*
X260039Y249246D01*
X259981Y249235D01*
X259912Y249216D01*
X259842Y249191D01*
X259777Y249154D01*
X259715Y249103D01*
X259712D01*
X259708Y249096D01*
X259690Y249078D01*
X259664Y249045D01*
X259635Y249002D01*
X259610Y248943D01*
X259584Y248878D01*
X259566Y248801D01*
X259559Y248758D01*
Y248689D01*
X259562Y248659D01*
X259566Y248623D01*
X259577Y248579D01*
X259588Y248536D01*
X259606Y248488D01*
X259628Y248441D01*
X259631Y248437D01*
X259639Y248423D01*
X259657Y248401D01*
X259675Y248372D01*
X259701Y248343D01*
X259733Y248314D01*
X259766Y248281D01*
X259806Y248255D01*
X259766Y247964D01*
X258470Y248208D01*
Y249460D01*
X258765D01*
Y248452D01*
X259446Y248317D01*
X259442Y248321D01*
X259438Y248328D01*
X259431Y248339D01*
X259420Y248357D01*
X259409Y248379D01*
X259395Y248405D01*
X259366Y248463D01*
X259336Y248536D01*
X259311Y248616D01*
X259293Y248703D01*
X259286Y248747D01*
Y248827D01*
X259289Y248849D01*
X259293Y248878D01*
X259296Y248911D01*
X259304Y248947D01*
X259315Y248987D01*
X259340Y249074D01*
X259358Y249122D01*
X259384Y249169D01*
X259409Y249216D01*
X259438Y249264D01*
X259475Y249307D01*
X259515Y249351D01*
X259519Y249355D01*
X259526Y249362D01*
X259537Y249373D01*
X259555Y249388D01*
X259580Y249406D01*
X259606Y249424D01*
X259639Y249446D01*
X259675Y249467D01*
X259715Y249486D01*
X259759Y249508D01*
X259810Y249526D01*
X259861Y249544D01*
X259915Y249559D01*
X259977Y249570D01*
X260039Y249577D01*
X260105Y249580D01*
X260108D01*
X260119D01*
X260137D01*
X260163Y249577D01*
D02*
G37*
G36*
X260956Y247298D02*
X260432Y246967D01*
X260429D01*
X260421Y246960D01*
X260410Y246952D01*
X260396Y246941D01*
X260356Y246916D01*
X260305Y246883D01*
X260250Y246843D01*
X260192Y246803D01*
X260137Y246763D01*
X260086Y246727D01*
X260083Y246723D01*
X260068Y246712D01*
X260046Y246694D01*
X260021Y246668D01*
X259966Y246614D01*
X259941Y246585D01*
X259919Y246555D01*
X259915Y246552D01*
X259912Y246545D01*
X259904Y246530D01*
X259893Y246508D01*
X259882Y246486D01*
X259872Y246461D01*
X259853Y246403D01*
Y246399D01*
X259850Y246392D01*
Y246377D01*
X259846Y246359D01*
X259842Y246334D01*
Y246304D01*
X259839Y246264D01*
Y245835D01*
X260956D01*
Y245500D01*
X258437D01*
Y246668D01*
X258441Y246697D01*
Y246730D01*
X258445Y246807D01*
X258456Y246887D01*
X258467Y246974D01*
X258485Y247054D01*
X258496Y247094D01*
X258507Y247127D01*
Y247131D01*
X258510Y247134D01*
X258521Y247156D01*
X258536Y247189D01*
X258561Y247229D01*
X258594Y247273D01*
X258638Y247320D01*
X258689Y247364D01*
X258747Y247407D01*
X258751D01*
X258754Y247411D01*
X258776Y247426D01*
X258812Y247440D01*
X258860Y247462D01*
X258914Y247480D01*
X258980Y247498D01*
X259049Y247509D01*
X259125Y247513D01*
X259129D01*
X259136D01*
X259151D01*
X259169Y247509D01*
X259195D01*
X259220Y247506D01*
X259282Y247491D01*
X259355Y247469D01*
X259431Y247440D01*
X259508Y247396D01*
X259544Y247367D01*
X259580Y247338D01*
X259584Y247335D01*
X259588Y247331D01*
X259599Y247320D01*
X259610Y247305D01*
X259624Y247287D01*
X259639Y247265D01*
X259657Y247236D01*
X259679Y247207D01*
X259697Y247171D01*
X259715Y247131D01*
X259737Y247087D01*
X259755Y247040D01*
X259770Y246985D01*
X259788Y246931D01*
X259799Y246869D01*
X259810Y246803D01*
X259813Y246810D01*
X259821Y246825D01*
X259835Y246847D01*
X259850Y246876D01*
X259890Y246941D01*
X259915Y246974D01*
X259937Y247003D01*
X259944Y247011D01*
X259963Y247029D01*
X259992Y247058D01*
X260028Y247094D01*
X260079Y247134D01*
X260134Y247182D01*
X260199Y247229D01*
X260272Y247280D01*
X260956Y247713D01*
Y247298D01*
D02*
G37*
G36*
X241062Y125832D02*
X241059Y125803D01*
Y125770D01*
X241055Y125693D01*
X241044Y125613D01*
X241033Y125526D01*
X241015Y125446D01*
X241004Y125406D01*
X240993Y125373D01*
Y125369D01*
X240990Y125366D01*
X240979Y125344D01*
X240964Y125311D01*
X240939Y125271D01*
X240906Y125227D01*
X240862Y125180D01*
X240811Y125136D01*
X240753Y125093D01*
X240750D01*
X240746Y125089D01*
X240724Y125075D01*
X240688Y125060D01*
X240640Y125038D01*
X240586Y125020D01*
X240520Y125002D01*
X240451Y124991D01*
X240374Y124987D01*
X240371D01*
X240364D01*
X240349D01*
X240331Y124991D01*
X240305D01*
X240280Y124994D01*
X240218Y125009D01*
X240145Y125031D01*
X240069Y125060D01*
X239992Y125104D01*
X239956Y125133D01*
X239919Y125162D01*
X239916Y125165D01*
X239912Y125169D01*
X239901Y125180D01*
X239890Y125195D01*
X239876Y125213D01*
X239861Y125235D01*
X239843Y125264D01*
X239821Y125293D01*
X239803Y125329D01*
X239785Y125369D01*
X239763Y125413D01*
X239745Y125460D01*
X239730Y125515D01*
X239712Y125569D01*
X239701Y125631D01*
X239690Y125697D01*
X239687Y125690D01*
X239679Y125675D01*
X239665Y125653D01*
X239650Y125624D01*
X239610Y125559D01*
X239585Y125526D01*
X239563Y125497D01*
X239556Y125489D01*
X239537Y125471D01*
X239508Y125442D01*
X239472Y125406D01*
X239421Y125366D01*
X239366Y125318D01*
X239301Y125271D01*
X239228Y125220D01*
X238544Y124787D01*
Y125202D01*
X239068Y125533D01*
X239071D01*
X239079Y125540D01*
X239090Y125548D01*
X239104Y125559D01*
X239144Y125584D01*
X239195Y125617D01*
X239250Y125657D01*
X239308Y125697D01*
X239363Y125737D01*
X239414Y125773D01*
X239417Y125777D01*
X239432Y125788D01*
X239454Y125806D01*
X239479Y125832D01*
X239534Y125886D01*
X239559Y125915D01*
X239581Y125944D01*
X239585Y125948D01*
X239588Y125955D01*
X239596Y125970D01*
X239606Y125992D01*
X239617Y126014D01*
X239628Y126039D01*
X239647Y126097D01*
Y126101D01*
X239650Y126108D01*
Y126123D01*
X239654Y126141D01*
X239657Y126166D01*
Y126196D01*
X239661Y126236D01*
Y126665D01*
X238544D01*
Y127000D01*
X241062D01*
Y125832D01*
D02*
G37*
G36*
X239789Y124601D02*
X239840D01*
X239898Y124598D01*
X239967Y124590D01*
X240043Y124583D01*
X240127Y124572D01*
X240211Y124558D01*
X240302Y124539D01*
X240389Y124518D01*
X240476Y124492D01*
X240560Y124459D01*
X240640Y124423D01*
X240717Y124383D01*
X240782Y124336D01*
X240786Y124332D01*
X240793Y124325D01*
X240808Y124310D01*
X240830Y124292D01*
X240851Y124270D01*
X240873Y124241D01*
X240902Y124205D01*
X240928Y124168D01*
X240953Y124124D01*
X240982Y124077D01*
X241004Y124022D01*
X241030Y123968D01*
X241048Y123906D01*
X241062Y123840D01*
X241070Y123771D01*
X241073Y123699D01*
Y123669D01*
X241070Y123648D01*
Y123622D01*
X241066Y123593D01*
X241052Y123524D01*
X241033Y123447D01*
X241004Y123367D01*
X240961Y123287D01*
X240935Y123247D01*
X240906Y123211D01*
X240902Y123207D01*
X240899Y123204D01*
X240888Y123193D01*
X240877Y123182D01*
X240859Y123163D01*
X240837Y123149D01*
X240786Y123109D01*
X240720Y123069D01*
X240640Y123032D01*
X240549Y123000D01*
X240447Y122978D01*
X240422Y123287D01*
X240425D01*
X240429Y123291D01*
X240451Y123294D01*
X240484Y123305D01*
X240524Y123320D01*
X240567Y123335D01*
X240611Y123356D01*
X240651Y123382D01*
X240684Y123407D01*
X240691Y123415D01*
X240706Y123429D01*
X240728Y123455D01*
X240753Y123491D01*
X240775Y123538D01*
X240797Y123589D01*
X240811Y123651D01*
X240819Y123717D01*
Y123742D01*
X240815Y123771D01*
X240808Y123804D01*
X240797Y123848D01*
X240782Y123891D01*
X240764Y123935D01*
X240735Y123979D01*
X240731Y123986D01*
X240717Y124004D01*
X240691Y124030D01*
X240655Y124063D01*
X240611Y124099D01*
X240560Y124139D01*
X240495Y124175D01*
X240422Y124212D01*
X240418D01*
X240411Y124215D01*
X240400Y124219D01*
X240386Y124226D01*
X240364Y124230D01*
X240338Y124237D01*
X240309Y124245D01*
X240273Y124252D01*
X240233Y124263D01*
X240189Y124270D01*
X240142Y124277D01*
X240091Y124281D01*
X240032Y124288D01*
X239974Y124292D01*
X239909Y124295D01*
X239843D01*
X239847Y124292D01*
X239869Y124277D01*
X239898Y124252D01*
X239934Y124219D01*
X239978Y124183D01*
X240018Y124135D01*
X240058Y124084D01*
X240094Y124026D01*
Y124022D01*
X240098Y124019D01*
X240109Y123997D01*
X240120Y123964D01*
X240138Y123921D01*
X240153Y123870D01*
X240163Y123811D01*
X240174Y123749D01*
X240178Y123684D01*
Y123655D01*
X240174Y123633D01*
X240171Y123604D01*
X240167Y123575D01*
X240160Y123538D01*
X240149Y123502D01*
X240123Y123418D01*
X240105Y123375D01*
X240080Y123331D01*
X240054Y123287D01*
X240025Y123240D01*
X239989Y123196D01*
X239949Y123156D01*
X239945Y123152D01*
X239938Y123145D01*
X239927Y123134D01*
X239909Y123123D01*
X239883Y123105D01*
X239858Y123087D01*
X239825Y123069D01*
X239789Y123047D01*
X239749Y123025D01*
X239705Y123007D01*
X239654Y122989D01*
X239603Y122971D01*
X239548Y122960D01*
X239486Y122949D01*
X239424Y122941D01*
X239359Y122938D01*
X239355D01*
X239348D01*
X239337D01*
X239319D01*
X239297Y122941D01*
X239275D01*
X239217Y122952D01*
X239148Y122963D01*
X239075Y122982D01*
X238995Y123007D01*
X238919Y123043D01*
X238915D01*
X238911Y123047D01*
X238900Y123054D01*
X238886Y123062D01*
X238849Y123083D01*
X238802Y123116D01*
X238751Y123156D01*
X238700Y123204D01*
X238649Y123262D01*
X238605Y123324D01*
Y123327D01*
X238602Y123331D01*
X238595Y123342D01*
X238591Y123356D01*
X238573Y123393D01*
X238555Y123440D01*
X238533Y123502D01*
X238518Y123571D01*
X238504Y123648D01*
X238500Y123731D01*
Y123749D01*
X238504Y123768D01*
Y123797D01*
X238507Y123830D01*
X238514Y123866D01*
X238525Y123910D01*
X238536Y123953D01*
X238551Y124004D01*
X238569Y124055D01*
X238591Y124106D01*
X238620Y124161D01*
X238653Y124212D01*
X238689Y124263D01*
X238733Y124314D01*
X238784Y124361D01*
X238788Y124365D01*
X238798Y124372D01*
X238813Y124383D01*
X238839Y124397D01*
X238871Y124419D01*
X238908Y124437D01*
X238955Y124459D01*
X239006Y124481D01*
X239068Y124507D01*
X239137Y124529D01*
X239213Y124547D01*
X239297Y124565D01*
X239392Y124583D01*
X239494Y124594D01*
X239603Y124601D01*
X239719Y124605D01*
X239723D01*
X239727D01*
X239738D01*
X239752D01*
X239789Y124601D01*
D02*
G37*
%LPC*%
G36*
X126673Y223171D02*
X126669D01*
X126665D01*
X126644Y223167D01*
X126611Y223163D01*
X126567Y223156D01*
X126523Y223138D01*
X126473Y223116D01*
X126425Y223083D01*
X126378Y223040D01*
X126374Y223032D01*
X126360Y223014D01*
X126341Y222985D01*
X126320Y222938D01*
X126298Y222883D01*
X126280Y222810D01*
X126265Y222727D01*
X126261Y222628D01*
Y221835D01*
X127095D01*
Y222585D01*
X127091Y222628D01*
X127088Y222679D01*
X127084Y222738D01*
X127077Y222796D01*
X127066Y222854D01*
X127051Y222905D01*
X127048Y222912D01*
X127040Y222927D01*
X127030Y222949D01*
X127015Y222978D01*
X126993Y223011D01*
X126968Y223043D01*
X126935Y223076D01*
X126898Y223101D01*
X126895Y223105D01*
X126880Y223113D01*
X126858Y223123D01*
X126829Y223138D01*
X126796Y223149D01*
X126760Y223160D01*
X126716Y223167D01*
X126673Y223171D01*
D02*
G37*
G36*
X132239Y115165D02*
X131405D01*
Y114415D01*
X131409Y114372D01*
X131412Y114321D01*
X131416Y114262D01*
X131423Y114204D01*
X131434Y114146D01*
X131449Y114095D01*
X131452Y114088D01*
X131460Y114073D01*
X131471Y114051D01*
X131485Y114022D01*
X131507Y113989D01*
X131532Y113957D01*
X131565Y113924D01*
X131602Y113898D01*
X131605Y113895D01*
X131620Y113888D01*
X131642Y113877D01*
X131671Y113862D01*
X131703Y113851D01*
X131740Y113840D01*
X131783Y113833D01*
X131827Y113829D01*
X131831D01*
X131834D01*
X131856Y113833D01*
X131889Y113837D01*
X131933Y113844D01*
X131976Y113862D01*
X132027Y113884D01*
X132075Y113917D01*
X132122Y113960D01*
X132126Y113968D01*
X132140Y113986D01*
X132159Y114015D01*
X132180Y114062D01*
X132202Y114117D01*
X132220Y114190D01*
X132235Y114273D01*
X132239Y114372D01*
Y115165D01*
D02*
G37*
G36*
X131782Y166665D02*
X130949D01*
Y165915D01*
X130952Y165872D01*
X130956Y165821D01*
X130960Y165762D01*
X130967Y165704D01*
X130978Y165646D01*
X130992Y165595D01*
X130996Y165588D01*
X131003Y165573D01*
X131014Y165551D01*
X131029Y165522D01*
X131051Y165489D01*
X131076Y165457D01*
X131109Y165424D01*
X131145Y165398D01*
X131149Y165395D01*
X131163Y165387D01*
X131185Y165377D01*
X131214Y165362D01*
X131247Y165351D01*
X131283Y165340D01*
X131327Y165333D01*
X131371Y165329D01*
X131375D01*
X131378D01*
X131400Y165333D01*
X131433Y165337D01*
X131476Y165344D01*
X131520Y165362D01*
X131571Y165384D01*
X131618Y165417D01*
X131666Y165460D01*
X131669Y165468D01*
X131684Y165486D01*
X131702Y165515D01*
X131724Y165562D01*
X131746Y165617D01*
X131764Y165690D01*
X131779Y165773D01*
X131782Y165872D01*
Y166665D01*
D02*
G37*
G36*
X130239Y265165D02*
X129405D01*
Y264415D01*
X129409Y264372D01*
X129412Y264321D01*
X129416Y264262D01*
X129423Y264204D01*
X129434Y264146D01*
X129449Y264095D01*
X129452Y264088D01*
X129460Y264073D01*
X129471Y264051D01*
X129485Y264022D01*
X129507Y263989D01*
X129532Y263957D01*
X129565Y263924D01*
X129602Y263898D01*
X129605Y263895D01*
X129620Y263888D01*
X129642Y263877D01*
X129671Y263862D01*
X129703Y263851D01*
X129740Y263840D01*
X129783Y263833D01*
X129827Y263829D01*
X129831D01*
X129834D01*
X129856Y263833D01*
X129889Y263837D01*
X129933Y263844D01*
X129976Y263862D01*
X130027Y263884D01*
X130075Y263917D01*
X130122Y263960D01*
X130126Y263968D01*
X130140Y263986D01*
X130158Y264015D01*
X130180Y264062D01*
X130202Y264117D01*
X130220Y264190D01*
X130235Y264273D01*
X130239Y264372D01*
Y265165D01*
D02*
G37*
G36*
X128888Y262894D02*
Y262100D01*
X130017D01*
X128888Y262894D01*
D02*
G37*
G36*
X259129Y247171D02*
X259125D01*
X259122D01*
X259100Y247167D01*
X259067Y247163D01*
X259023Y247156D01*
X258980Y247138D01*
X258929Y247116D01*
X258882Y247083D01*
X258834Y247040D01*
X258831Y247032D01*
X258816Y247014D01*
X258798Y246985D01*
X258776Y246938D01*
X258754Y246883D01*
X258736Y246810D01*
X258721Y246727D01*
X258718Y246628D01*
Y245835D01*
X259551D01*
Y246585D01*
X259548Y246628D01*
X259544Y246679D01*
X259540Y246738D01*
X259533Y246796D01*
X259522Y246854D01*
X259508Y246905D01*
X259504Y246912D01*
X259497Y246927D01*
X259486Y246949D01*
X259471Y246978D01*
X259449Y247011D01*
X259424Y247043D01*
X259391Y247076D01*
X259355Y247101D01*
X259351Y247105D01*
X259336Y247112D01*
X259315Y247123D01*
X259286Y247138D01*
X259253Y247149D01*
X259216Y247160D01*
X259173Y247167D01*
X259129Y247171D01*
D02*
G37*
G36*
X240782Y126665D02*
X239949D01*
Y125915D01*
X239952Y125872D01*
X239956Y125821D01*
X239960Y125762D01*
X239967Y125704D01*
X239978Y125646D01*
X239992Y125595D01*
X239996Y125588D01*
X240003Y125573D01*
X240014Y125551D01*
X240029Y125522D01*
X240051Y125489D01*
X240076Y125457D01*
X240109Y125424D01*
X240145Y125398D01*
X240149Y125395D01*
X240163Y125388D01*
X240185Y125377D01*
X240214Y125362D01*
X240247Y125351D01*
X240284Y125340D01*
X240327Y125333D01*
X240371Y125329D01*
X240374D01*
X240378D01*
X240400Y125333D01*
X240433Y125337D01*
X240476Y125344D01*
X240520Y125362D01*
X240571Y125384D01*
X240618Y125417D01*
X240666Y125460D01*
X240669Y125468D01*
X240684Y125486D01*
X240702Y125515D01*
X240724Y125562D01*
X240746Y125617D01*
X240764Y125690D01*
X240779Y125773D01*
X240782Y125872D01*
Y126665D01*
D02*
G37*
G36*
X239359Y124248D02*
X239352D01*
X239334D01*
X239301Y124245D01*
X239261Y124241D01*
X239213Y124234D01*
X239162Y124219D01*
X239108Y124205D01*
X239053Y124183D01*
X239046Y124179D01*
X239028Y124168D01*
X239002Y124153D01*
X238969Y124132D01*
X238937Y124106D01*
X238897Y124074D01*
X238864Y124037D01*
X238831Y123993D01*
X238828Y123986D01*
X238820Y123972D01*
X238806Y123946D01*
X238795Y123913D01*
X238780Y123877D01*
X238766Y123833D01*
X238758Y123786D01*
X238755Y123735D01*
Y123717D01*
X238758Y123702D01*
X238762Y123666D01*
X238773Y123618D01*
X238795Y123567D01*
X238820Y123509D01*
X238860Y123451D01*
X238882Y123422D01*
X238911Y123396D01*
X238915D01*
X238919Y123389D01*
X238940Y123375D01*
X238977Y123353D01*
X239024Y123324D01*
X239086Y123298D01*
X239159Y123276D01*
X239243Y123262D01*
X239341Y123255D01*
X239344D01*
X239352D01*
X239366D01*
X239385Y123258D01*
X239406D01*
X239432Y123262D01*
X239490Y123273D01*
X239556Y123287D01*
X239625Y123313D01*
X239690Y123349D01*
X239752Y123396D01*
X239759Y123404D01*
X239778Y123422D01*
X239799Y123451D01*
X239828Y123491D01*
X239858Y123542D01*
X239879Y123600D01*
X239898Y123669D01*
X239905Y123746D01*
Y123768D01*
X239901Y123782D01*
X239898Y123819D01*
X239887Y123870D01*
X239869Y123924D01*
X239840Y123986D01*
X239803Y124044D01*
X239752Y124103D01*
X239745Y124110D01*
X239727Y124124D01*
X239694Y124150D01*
X239647Y124175D01*
X239592Y124201D01*
X239523Y124226D01*
X239446Y124241D01*
X239359Y124248D01*
D02*
G37*
%LPD*%
D12*
X124169Y205929D02*
X132831D01*
Y237071D01*
X124169D02*
X132831D01*
X124169Y205929D02*
Y237071D01*
X125669Y131071D02*
X134331D01*
X125669Y99929D02*
Y131071D01*
Y99929D02*
X134331D01*
Y131071D01*
X125169Y182571D02*
X133831D01*
X125169Y151429D02*
Y182571D01*
Y151429D02*
X133831D01*
Y182571D01*
X123669Y281071D02*
X132331D01*
X123669Y249929D02*
Y281071D01*
Y249929D02*
X132331D01*
Y281071D01*
X257598Y167232D02*
Y183768D01*
X232402D02*
X257598D01*
X232402Y167232D02*
Y183768D01*
Y167232D02*
X257598D01*
Y200732D02*
Y217268D01*
X232402D02*
X257598D01*
X232402Y200732D02*
Y217268D01*
Y200732D02*
X257598D01*
X256669Y229929D02*
X265331D01*
Y261071D01*
X256669D02*
X265331D01*
X256669Y229929D02*
Y261071D01*
X234169Y142571D02*
X242831D01*
X234169Y111429D02*
Y142571D01*
Y111429D02*
X242831D01*
Y142571D01*
M02*
