G04*
G04 #@! TF.GenerationSoftware,Altium Limited,Altium Designer,22.10.1 (41)*
G04*
G04 Layer_Color=16711935*
%FSLAX25Y25*%
%MOIN*%
G70*
G04*
G04 #@! TF.SameCoordinates,D8DE2597-0232-48C6-990D-D127052A737A*
G04*
G04*
G04 #@! TF.FilePolarity,Negative*
G04*
G01*
G75*
%ADD17C,0.06706*%
%ADD18R,0.06706X0.06706*%
%ADD19C,0.04528*%
%ADD20R,0.04528X0.04528*%
%ADD21C,0.05918*%
%ADD22R,0.06115X0.06115*%
%ADD23C,0.06115*%
%ADD24R,0.07099X0.07099*%
%ADD25C,0.07099*%
%ADD26C,0.07493*%
%ADD27R,0.07493X0.07493*%
%ADD28R,0.05524X0.05524*%
%ADD29C,0.05524*%
%ADD30C,0.04724*%
%ADD31R,0.04724X0.04724*%
G36*
X63419Y52000D02*
X63541Y51073D01*
X63899Y50210D01*
X64468Y49468D01*
X65210Y48899D01*
X66073Y48541D01*
X67000Y48419D01*
X67927Y48541D01*
X68790Y48899D01*
X69532Y49468D01*
X70101Y50210D01*
X70459Y51073D01*
X70581Y52000D01*
D01*
X70459Y52927D01*
X70101Y53790D01*
X69532Y54532D01*
X68790Y55101D01*
X67927Y55459D01*
X67000Y55581D01*
X66073Y55459D01*
X65210Y55101D01*
X64468Y54532D01*
X63899Y53790D01*
X63541Y52927D01*
X63419Y52000D01*
D01*
D02*
G37*
G36*
Y72000D02*
X63541Y71073D01*
X63899Y70210D01*
X64468Y69468D01*
X65210Y68899D01*
X66073Y68541D01*
X67000Y68419D01*
X67927Y68541D01*
X68790Y68899D01*
X69532Y69468D01*
X70101Y70210D01*
X70459Y71073D01*
X70581Y72000D01*
D01*
X70459Y72927D01*
X70101Y73790D01*
X69532Y74532D01*
X68790Y75101D01*
X67927Y75459D01*
X67000Y75581D01*
X66073Y75459D01*
X65210Y75101D01*
X64468Y74532D01*
X63899Y73790D01*
X63541Y72927D01*
X63419Y72000D01*
D01*
D02*
G37*
G36*
Y103000D02*
X63541Y102073D01*
X63899Y101210D01*
X64468Y100468D01*
X65210Y99899D01*
X66073Y99541D01*
X67000Y99419D01*
X67927Y99541D01*
X68790Y99899D01*
X69532Y100468D01*
X70101Y101210D01*
X70459Y102073D01*
X70581Y103000D01*
D01*
X70459Y103927D01*
X70101Y104790D01*
X69532Y105532D01*
X68790Y106101D01*
X67927Y106459D01*
X67000Y106581D01*
X66073Y106459D01*
X65210Y106101D01*
X64468Y105532D01*
X63899Y104790D01*
X63541Y103927D01*
X63419Y103000D01*
D01*
D02*
G37*
G36*
Y123000D02*
X63541Y122073D01*
X63899Y121210D01*
X64468Y120468D01*
X65210Y119899D01*
X66073Y119541D01*
X67000Y119419D01*
X67927Y119541D01*
X68790Y119899D01*
X69532Y120468D01*
X70101Y121210D01*
X70459Y122073D01*
X70581Y123000D01*
D01*
X70459Y123927D01*
X70101Y124790D01*
X69532Y125532D01*
X68790Y126101D01*
X67927Y126459D01*
X67000Y126581D01*
X66073Y126459D01*
X65210Y126101D01*
X64468Y125532D01*
X63899Y124790D01*
X63541Y123927D01*
X63419Y123000D01*
D01*
D02*
G37*
G36*
Y158500D02*
X63541Y157573D01*
X63899Y156710D01*
X64468Y155968D01*
X65210Y155399D01*
X66073Y155041D01*
X67000Y154919D01*
X67927Y155041D01*
X68790Y155399D01*
X69532Y155968D01*
X70101Y156710D01*
X70459Y157573D01*
X70581Y158500D01*
D01*
X70459Y159427D01*
X70101Y160290D01*
X69532Y161032D01*
X68790Y161601D01*
X67927Y161959D01*
X67000Y162081D01*
X66073Y161959D01*
X65210Y161601D01*
X64468Y161032D01*
X63899Y160290D01*
X63541Y159427D01*
X63419Y158500D01*
D01*
D02*
G37*
G36*
Y178500D02*
X63541Y177573D01*
X63899Y176710D01*
X64468Y175968D01*
X65210Y175399D01*
X66073Y175041D01*
X67000Y174919D01*
X67927Y175041D01*
X68790Y175399D01*
X69532Y175968D01*
X70101Y176710D01*
X70459Y177573D01*
X70581Y178500D01*
D01*
X70459Y179427D01*
X70101Y180290D01*
X69532Y181032D01*
X68790Y181601D01*
X67927Y181959D01*
X67000Y182081D01*
X66073Y181959D01*
X65210Y181601D01*
X64468Y181032D01*
X63899Y180290D01*
X63541Y179427D01*
X63419Y178500D01*
D01*
D02*
G37*
G36*
X62419Y220500D02*
X62541Y219573D01*
X62899Y218710D01*
X63468Y217968D01*
X64210Y217399D01*
X65073Y217041D01*
X66000Y216919D01*
X66927Y217041D01*
X67790Y217399D01*
X68532Y217968D01*
X69101Y218710D01*
X69459Y219573D01*
X69581Y220500D01*
D01*
X69459Y221427D01*
X69101Y222290D01*
X68532Y223032D01*
X67790Y223601D01*
X66927Y223959D01*
X66000Y224081D01*
X65073Y223959D01*
X64210Y223601D01*
X63468Y223032D01*
X62899Y222290D01*
X62541Y221427D01*
X62419Y220500D01*
D01*
D02*
G37*
G36*
Y240500D02*
X62541Y239573D01*
X62899Y238710D01*
X63468Y237968D01*
X64210Y237399D01*
X65073Y237041D01*
X66000Y236919D01*
X66927Y237041D01*
X67790Y237399D01*
X68532Y237968D01*
X69101Y238710D01*
X69459Y239573D01*
X69581Y240500D01*
D01*
X69459Y241427D01*
X69101Y242290D01*
X68532Y243032D01*
X67790Y243601D01*
X66927Y243959D01*
X66000Y244081D01*
X65073Y243959D01*
X64210Y243601D01*
X63468Y243032D01*
X62899Y242290D01*
X62541Y241427D01*
X62419Y240500D01*
D01*
D02*
G37*
G36*
X61919Y277500D02*
X62041Y276573D01*
X62399Y275710D01*
X62968Y274968D01*
X63710Y274399D01*
X64573Y274041D01*
X65500Y273919D01*
X66427Y274041D01*
X67290Y274399D01*
X68032Y274968D01*
X68601Y275710D01*
X68959Y276573D01*
X69081Y277500D01*
D01*
X68959Y278427D01*
X68601Y279290D01*
X68032Y280032D01*
X67290Y280601D01*
X66427Y280959D01*
X65500Y281081D01*
X64573Y280959D01*
X63710Y280601D01*
X62968Y280032D01*
X62399Y279290D01*
X62041Y278427D01*
X61919Y277500D01*
D01*
D02*
G37*
G36*
Y297500D02*
X62041Y296573D01*
X62399Y295710D01*
X62968Y294968D01*
X63710Y294399D01*
X64573Y294041D01*
X65500Y293919D01*
X66427Y294041D01*
X67290Y294399D01*
X68032Y294968D01*
X68601Y295710D01*
X68959Y296573D01*
X69081Y297500D01*
D01*
X68959Y298427D01*
X68601Y299290D01*
X68032Y300032D01*
X67290Y300601D01*
X66427Y300959D01*
X65500Y301081D01*
X64573Y300959D01*
X63710Y300601D01*
X62968Y300032D01*
X62399Y299290D01*
X62041Y298427D01*
X61919Y297500D01*
D01*
D02*
G37*
G36*
X327919Y61500D02*
X328041Y60573D01*
X328399Y59710D01*
X328968Y58968D01*
X329710Y58399D01*
X330573Y58041D01*
X331500Y57919D01*
X332427Y58041D01*
X333290Y58399D01*
X334032Y58968D01*
X334601Y59710D01*
X334959Y60573D01*
X335081Y61500D01*
D01*
X334959Y62427D01*
X334601Y63290D01*
X334032Y64032D01*
X333290Y64601D01*
X332427Y64959D01*
X331500Y65081D01*
X330573Y64959D01*
X329710Y64601D01*
X328968Y64032D01*
X328399Y63290D01*
X328041Y62427D01*
X327919Y61500D01*
D01*
D02*
G37*
G36*
Y81500D02*
X328041Y80573D01*
X328399Y79710D01*
X328968Y78968D01*
X329710Y78399D01*
X330573Y78041D01*
X331500Y77919D01*
X332427Y78041D01*
X333290Y78399D01*
X334032Y78968D01*
X334601Y79710D01*
X334959Y80573D01*
X335081Y81500D01*
D01*
X334959Y82427D01*
X334601Y83290D01*
X334032Y84032D01*
X333290Y84601D01*
X332427Y84959D01*
X331500Y85081D01*
X330573Y84959D01*
X329710Y84601D01*
X328968Y84032D01*
X328399Y83290D01*
X328041Y82427D01*
X327919Y81500D01*
D01*
D02*
G37*
G36*
X326419Y114000D02*
X326541Y113073D01*
X326899Y112210D01*
X327468Y111468D01*
X328210Y110899D01*
X329073Y110541D01*
X330000Y110419D01*
X330927Y110541D01*
X331790Y110899D01*
X332532Y111468D01*
X333101Y112210D01*
X333459Y113073D01*
X333581Y114000D01*
D01*
X333459Y114927D01*
X333101Y115790D01*
X332532Y116532D01*
X331790Y117101D01*
X330927Y117459D01*
X330000Y117581D01*
X329073Y117459D01*
X328210Y117101D01*
X327468Y116532D01*
X326899Y115790D01*
X326541Y114927D01*
X326419Y114000D01*
D01*
D02*
G37*
G36*
Y134000D02*
X326541Y133073D01*
X326899Y132210D01*
X327468Y131468D01*
X328210Y130899D01*
X329073Y130541D01*
X330000Y130419D01*
X330927Y130541D01*
X331790Y130899D01*
X332532Y131468D01*
X333101Y132210D01*
X333459Y133073D01*
X333581Y134000D01*
D01*
X333459Y134927D01*
X333101Y135790D01*
X332532Y136532D01*
X331790Y137101D01*
X330927Y137459D01*
X330000Y137581D01*
X329073Y137459D01*
X328210Y137101D01*
X327468Y136532D01*
X326899Y135790D01*
X326541Y134927D01*
X326419Y134000D01*
D01*
D02*
G37*
G36*
X326919Y167500D02*
X327041Y166573D01*
X327399Y165710D01*
X327968Y164968D01*
X328710Y164399D01*
X329573Y164041D01*
X330500Y163919D01*
X331427Y164041D01*
X332290Y164399D01*
X333032Y164968D01*
X333601Y165710D01*
X333959Y166573D01*
X334081Y167500D01*
D01*
X333959Y168427D01*
X333601Y169290D01*
X333032Y170032D01*
X332290Y170601D01*
X331427Y170959D01*
X330500Y171081D01*
X329573Y170959D01*
X328710Y170601D01*
X327968Y170032D01*
X327399Y169290D01*
X327041Y168427D01*
X326919Y167500D01*
D01*
D02*
G37*
G36*
Y187500D02*
X327041Y186573D01*
X327399Y185710D01*
X327968Y184968D01*
X328710Y184399D01*
X329573Y184041D01*
X330500Y183919D01*
X331427Y184041D01*
X332290Y184399D01*
X333032Y184968D01*
X333601Y185710D01*
X333959Y186573D01*
X334081Y187500D01*
D01*
X333959Y188427D01*
X333601Y189290D01*
X333032Y190032D01*
X332290Y190601D01*
X331427Y190959D01*
X330500Y191081D01*
X329573Y190959D01*
X328710Y190601D01*
X327968Y190032D01*
X327399Y189290D01*
X327041Y188427D01*
X326919Y187500D01*
D01*
D02*
G37*
G36*
Y218500D02*
X327041Y217573D01*
X327399Y216710D01*
X327968Y215968D01*
X328710Y215399D01*
X329573Y215041D01*
X330500Y214919D01*
X331427Y215041D01*
X332290Y215399D01*
X333032Y215968D01*
X333601Y216710D01*
X333959Y217573D01*
X334081Y218500D01*
D01*
X333959Y219427D01*
X333601Y220290D01*
X333032Y221032D01*
X332290Y221601D01*
X331427Y221959D01*
X330500Y222081D01*
X329573Y221959D01*
X328710Y221601D01*
X327968Y221032D01*
X327399Y220290D01*
X327041Y219427D01*
X326919Y218500D01*
D01*
D02*
G37*
G36*
Y238500D02*
X327041Y237573D01*
X327399Y236710D01*
X327968Y235968D01*
X328710Y235399D01*
X329573Y235041D01*
X330500Y234919D01*
X331427Y235041D01*
X332290Y235399D01*
X333032Y235968D01*
X333601Y236710D01*
X333959Y237573D01*
X334081Y238500D01*
D01*
X333959Y239427D01*
X333601Y240290D01*
X333032Y241032D01*
X332290Y241601D01*
X331427Y241959D01*
X330500Y242081D01*
X329573Y241959D01*
X328710Y241601D01*
X327968Y241032D01*
X327399Y240290D01*
X327041Y239427D01*
X326919Y238500D01*
D01*
D02*
G37*
G36*
X325419Y281000D02*
X325541Y280073D01*
X325899Y279210D01*
X326468Y278468D01*
X327210Y277899D01*
X328073Y277541D01*
X329000Y277419D01*
X329927Y277541D01*
X330790Y277899D01*
X331532Y278468D01*
X332101Y279210D01*
X332459Y280073D01*
X332581Y281000D01*
D01*
X332459Y281927D01*
X332101Y282790D01*
X331532Y283532D01*
X330790Y284101D01*
X329927Y284459D01*
X329000Y284581D01*
X328073Y284459D01*
X327210Y284101D01*
X326468Y283532D01*
X325899Y282790D01*
X325541Y281927D01*
X325419Y281000D01*
D01*
D02*
G37*
G36*
Y301000D02*
X325541Y300073D01*
X325899Y299210D01*
X326468Y298468D01*
X327210Y297899D01*
X328073Y297541D01*
X329000Y297419D01*
X329927Y297541D01*
X330790Y297899D01*
X331532Y298468D01*
X332101Y299210D01*
X332459Y300073D01*
X332581Y301000D01*
D01*
X332459Y301927D01*
X332101Y302790D01*
X331532Y303532D01*
X330790Y304101D01*
X329927Y304459D01*
X329000Y304581D01*
X328073Y304459D01*
X327210Y304101D01*
X326468Y303532D01*
X325899Y302790D01*
X325541Y301927D01*
X325419Y301000D01*
D01*
D02*
G37*
D17*
X170000Y250500D02*
D03*
Y240500D02*
D03*
Y230500D02*
D03*
Y220500D02*
D03*
Y210500D02*
D03*
Y200500D02*
D03*
Y190500D02*
D03*
Y180500D02*
D03*
Y170500D02*
D03*
Y160500D02*
D03*
Y150500D02*
D03*
Y140500D02*
D03*
Y130500D02*
D03*
Y120500D02*
D03*
X200000Y250500D02*
D03*
Y240500D02*
D03*
Y230500D02*
D03*
Y220500D02*
D03*
Y210500D02*
D03*
Y200500D02*
D03*
Y190500D02*
D03*
Y180500D02*
D03*
Y170500D02*
D03*
Y160500D02*
D03*
Y150500D02*
D03*
Y140500D02*
D03*
Y130500D02*
D03*
D18*
Y120500D02*
D03*
D19*
X128500Y234413D02*
D03*
X130000Y102587D02*
D03*
X129500Y154087D02*
D03*
X128000Y252587D02*
D03*
X261000Y258413D02*
D03*
X238500Y114087D02*
D03*
D20*
X128500Y208587D02*
D03*
X130000Y128413D02*
D03*
X129500Y179913D02*
D03*
X128000Y278413D02*
D03*
X261000Y232587D02*
D03*
X238500Y139913D02*
D03*
D21*
X188347Y288000D02*
D03*
X182500Y293000D02*
D03*
X176654Y288000D02*
D03*
D22*
X226842Y72000D02*
D03*
D23*
X207157D02*
D03*
D24*
X132000Y28500D02*
D03*
D25*
Y38500D02*
D03*
D26*
X142000Y74500D02*
D03*
X132000D02*
D03*
D27*
X122000D02*
D03*
D28*
X281000Y204606D02*
D03*
D29*
Y195000D02*
D03*
Y185394D02*
D03*
D30*
X235157Y175500D02*
D03*
Y209000D02*
D03*
D31*
X254842Y175500D02*
D03*
Y209000D02*
D03*
M02*
