G04*
G04 #@! TF.GenerationSoftware,Altium Limited,Altium Designer,22.10.1 (41)*
G04*
G04 Layer_Physical_Order=1*
G04 Layer_Color=255*
%FSLAX25Y25*%
%MOIN*%
G70*
G04*
G04 #@! TF.SameCoordinates,D8DE2597-0232-48C6-990D-D127052A737A*
G04*
G04*
G04 #@! TF.FilePolarity,Positive*
G04*
G01*
G75*
%ADD19C,0.04528*%
%ADD20R,0.04528X0.04528*%
%ADD30C,0.04724*%
%ADD31R,0.04724X0.04724*%
%ADD32C,0.03200*%
%ADD33C,0.05906*%
%ADD34R,0.05906X0.05906*%
%ADD35C,0.05118*%
%ADD36R,0.05315X0.05315*%
%ADD37C,0.05315*%
%ADD38R,0.06299X0.06299*%
%ADD39C,0.06299*%
%ADD40C,0.07100*%
%ADD41C,0.06693*%
%ADD42R,0.06693X0.06693*%
%ADD43R,0.04724X0.04724*%
D19*
X128500Y234413D02*
D03*
X130000Y102587D02*
D03*
X129500Y154087D02*
D03*
X128000Y252587D02*
D03*
X261000Y258413D02*
D03*
X238500Y114087D02*
D03*
D20*
X128500Y208587D02*
D03*
X130000Y128413D02*
D03*
X129500Y179913D02*
D03*
X128000Y278413D02*
D03*
X261000Y232587D02*
D03*
X238500Y139913D02*
D03*
D30*
X281000Y195000D02*
D03*
Y185394D02*
D03*
X235157Y175500D02*
D03*
Y209000D02*
D03*
D31*
X254842Y175500D02*
D03*
Y209000D02*
D03*
D32*
X238246Y109246D02*
Y113833D01*
X234000Y105000D02*
X238246Y109246D01*
Y113833D02*
X238500Y114087D01*
X197500Y105000D02*
X234000D01*
X180000Y122500D02*
X197500Y105000D01*
X180000Y122500D02*
Y255000D01*
X159000Y264000D02*
X171000D01*
X180000Y255000D01*
X147587Y252587D02*
X159000Y264000D01*
X128000Y252587D02*
X147587D01*
X206500Y174000D02*
X222000Y158500D01*
X200000Y180500D02*
X206500Y174000D01*
Y146087D02*
Y174000D01*
Y146087D02*
X238500Y114087D01*
X188000Y172500D02*
X200000Y160500D01*
X188000Y172500D02*
Y268000D01*
X182500Y273500D02*
Y293000D01*
Y273500D02*
X188000Y268000D01*
X128500Y234413D02*
X154000Y208913D01*
Y186500D02*
X170000Y170500D01*
X154000Y186500D02*
Y208913D01*
X130000Y102587D02*
X153500Y126087D01*
Y153500D02*
X160500Y160500D01*
X170000D01*
X153500Y126087D02*
Y153500D01*
X145000Y143413D02*
Y164413D01*
X129500Y179913D02*
X145000Y164413D01*
X130000Y128413D02*
X145000Y143413D01*
X66746Y216840D02*
Y219754D01*
Y216840D02*
X129500Y154087D01*
X66000Y220500D02*
X66746Y219754D01*
X221616Y210500D02*
X226116Y215000D01*
X200000Y210500D02*
X221616D01*
X248843Y215000D02*
X254842Y209000D01*
X226116Y215000D02*
X248843D01*
X200000Y200500D02*
X216892D01*
X241892Y175500D02*
X254842D01*
X216892Y200500D02*
X241892Y175500D01*
X199500Y180000D02*
X200000Y180500D01*
X170000Y111000D02*
Y120500D01*
X199500Y81500D02*
X331500D01*
X170000Y111000D02*
X199500Y81500D01*
X153500Y114000D02*
X170000Y130500D01*
X153500Y106000D02*
Y114000D01*
X198000Y61500D02*
X331500D01*
X153500Y106000D02*
X198000Y61500D01*
X222000Y158500D02*
X321500D01*
X330500Y167500D01*
X200000Y190500D02*
X215000Y175500D01*
X235157D01*
X315500Y182500D02*
X330500Y167500D01*
X315500Y182500D02*
Y267500D01*
X329000Y281000D01*
X235157Y208588D02*
Y209000D01*
D33*
X170000Y250500D02*
D03*
Y240500D02*
D03*
Y230500D02*
D03*
Y220500D02*
D03*
Y210500D02*
D03*
Y200500D02*
D03*
Y190500D02*
D03*
Y180500D02*
D03*
Y170500D02*
D03*
Y160500D02*
D03*
Y150500D02*
D03*
Y140500D02*
D03*
Y130500D02*
D03*
Y120500D02*
D03*
X200000Y250500D02*
D03*
Y240500D02*
D03*
Y230500D02*
D03*
Y220500D02*
D03*
Y210500D02*
D03*
Y200500D02*
D03*
Y190500D02*
D03*
Y180500D02*
D03*
Y170500D02*
D03*
Y160500D02*
D03*
Y150500D02*
D03*
Y140500D02*
D03*
Y130500D02*
D03*
D34*
Y120500D02*
D03*
D35*
X188347Y288000D02*
D03*
X182500Y293000D02*
D03*
X176654Y288000D02*
D03*
D36*
X226842Y72000D02*
D03*
D37*
X207157D02*
D03*
D38*
X132000Y28500D02*
D03*
D39*
Y38500D02*
D03*
D40*
X330000Y114000D02*
D03*
Y134000D02*
D03*
X330500Y218500D02*
D03*
Y238500D02*
D03*
X67000Y52000D02*
D03*
Y72000D02*
D03*
Y158500D02*
D03*
Y178500D02*
D03*
Y103000D02*
D03*
Y123000D02*
D03*
X66000Y220500D02*
D03*
Y240500D02*
D03*
X65500Y277500D02*
D03*
Y297500D02*
D03*
X331500Y61500D02*
D03*
Y81500D02*
D03*
X329000Y281000D02*
D03*
Y301000D02*
D03*
X330500Y167500D02*
D03*
Y187500D02*
D03*
D41*
X142000Y74500D02*
D03*
X132000D02*
D03*
D42*
X122000D02*
D03*
D43*
X281000Y204606D02*
D03*
M02*
