G04*
G04 #@! TF.GenerationSoftware,Altium Limited,Altium Designer,22.10.1 (41)*
G04*
G04 Layer_Color=65535*
%FSLAX25Y25*%
%MOIN*%
G70*
G04*
G04 #@! TF.SameCoordinates,D8DE2597-0232-48C6-990D-D127052A737A*
G04*
G04*
G04 #@! TF.FilePolarity,Positive*
G04*
G01*
G75*
%ADD10C,0.02362*%
%ADD11C,0.00984*%
%ADD12C,0.00787*%
%ADD13C,0.02000*%
%ADD14C,0.00700*%
%ADD15C,0.00600*%
%ADD16C,0.01000*%
D10*
X192677Y119752D02*
G03*
X192677Y119752I-1181J0D01*
G01*
D11*
X200492Y115382D02*
G03*
X200492Y115382I-492J0D01*
G01*
X114579Y70169D02*
G03*
X114579Y70169I-492J0D01*
G01*
D12*
X187500Y115815D02*
G03*
X182500Y115815I-2500J0D01*
G01*
X192087Y281656D02*
G03*
X188828Y278402I-9587J6344D01*
G01*
X236685Y72000D02*
G03*
X236685Y72000I-19685J0D01*
G01*
X290843Y214094D02*
G03*
X287595Y217342I-3248J0D01*
G01*
X274406Y217342D02*
G03*
X271158Y214094I0J-3248D01*
G01*
Y175906D02*
G03*
X274406Y172658I3248J-0D01*
G01*
X287595Y172658D02*
G03*
X290843Y175906I0J3248D01*
G01*
X174567Y255185D02*
X195433D01*
X174567Y115815D02*
X182500D01*
X187500D02*
X195433D01*
X174567D02*
Y255185D01*
X195433Y115815D02*
Y255185D01*
X128500Y228587D02*
Y230575D01*
Y212425D02*
Y214413D01*
X124563D02*
X132437D01*
Y228587D01*
X124563D02*
X132437D01*
X124563Y214413D02*
Y228587D01*
X192085Y281659D02*
X195454Y278291D01*
X192196Y275034D02*
X195454Y278291D01*
X188828Y278402D02*
X192196Y275034D01*
X230453Y61158D02*
Y65095D01*
X228484Y63126D02*
X232421D01*
X130000Y106425D02*
Y108413D01*
Y122587D02*
Y124575D01*
X126063Y122587D02*
X133937D01*
X126063Y108413D02*
Y122587D01*
Y108413D02*
X133937D01*
Y122587D01*
X129500Y157925D02*
Y159913D01*
Y174087D02*
Y176075D01*
X125563Y174087D02*
X133437D01*
X125563Y159913D02*
Y174087D01*
Y159913D02*
X133437D01*
Y174087D01*
X128000Y256425D02*
Y258413D01*
Y272587D02*
Y274575D01*
X124063Y272587D02*
X131937D01*
X124063Y258413D02*
Y272587D01*
Y258413D02*
X131937D01*
Y272587D01*
X137295Y22909D02*
Y44091D01*
X126705Y22909D02*
X137295D01*
X126705D02*
Y44091D01*
X137295D01*
X111528Y83752D02*
X152472D01*
X111528Y67610D02*
Y85720D01*
X111528Y67610D02*
X152472D01*
Y85720D01*
X111528D02*
X152472D01*
X274406Y217342D02*
X287595D01*
X290843Y175906D02*
Y214094D01*
X271158Y175906D02*
Y214094D01*
X274406Y172658D02*
X287595D01*
X255827Y167626D02*
Y171661D01*
Y179339D02*
Y183374D01*
X234173D02*
X255827D01*
X234173Y167626D02*
Y171661D01*
Y179339D02*
Y183374D01*
Y167626D02*
X255827D01*
Y201126D02*
Y205161D01*
Y212839D02*
Y216874D01*
X234173D02*
X255827D01*
X234173Y201126D02*
Y205161D01*
Y212839D02*
Y216874D01*
Y201126D02*
X255827D01*
X261000Y252587D02*
Y254575D01*
Y236425D02*
Y238413D01*
X257063D02*
X264937D01*
Y252587D01*
X257063D02*
X264937D01*
X257063Y238413D02*
Y252587D01*
X238500Y117925D02*
Y119913D01*
Y134087D02*
Y136075D01*
X234563Y134087D02*
X242437D01*
X234563Y119913D02*
Y134087D01*
Y119913D02*
X242437D01*
Y134087D01*
D13*
X331500Y101000D02*
G03*
X331500Y101000I-1500J0D01*
G01*
X332000Y205500D02*
G03*
X332000Y205500I-1500J0D01*
G01*
X68500Y39000D02*
G03*
X68500Y39000I-1500J0D01*
G01*
Y145500D02*
G03*
X68500Y145500I-1500J0D01*
G01*
Y90000D02*
G03*
X68500Y90000I-1500J0D01*
G01*
X67500Y207500D02*
G03*
X67500Y207500I-1500J0D01*
G01*
X67000Y264500D02*
G03*
X67000Y264500I-1500J0D01*
G01*
X333000Y48500D02*
G03*
X333000Y48500I-1500J0D01*
G01*
X330500Y268000D02*
G03*
X330500Y268000I-1500J0D01*
G01*
X332000Y154500D02*
G03*
X332000Y154500I-1500J0D01*
G01*
D14*
X281350Y219618D02*
G03*
X281350Y219618I-350J0D01*
G01*
D15*
X346445Y103500D02*
Y144500D01*
X313358D02*
X346445D01*
X313358Y103500D02*
Y144500D01*
Y103500D02*
X346445D01*
X346945Y208000D02*
Y249000D01*
X313858D02*
X346945D01*
X313858Y208000D02*
Y249000D01*
Y208000D02*
X346945D01*
X83445Y41500D02*
Y82500D01*
X50358D02*
X83445D01*
X50358Y41500D02*
Y82500D01*
Y41500D02*
X83445D01*
Y148000D02*
Y189000D01*
X50358D02*
X83445D01*
X50358Y148000D02*
Y189000D01*
Y148000D02*
X83445D01*
Y92500D02*
Y133500D01*
X50358D02*
X83445D01*
X50358Y92500D02*
Y133500D01*
Y92500D02*
X83445D01*
X82445Y210000D02*
Y251000D01*
X49358D02*
X82445D01*
X49358Y210000D02*
Y251000D01*
Y210000D02*
X82445D01*
X81945Y267000D02*
Y308000D01*
X48858D02*
X81945D01*
X48858Y267000D02*
Y308000D01*
Y267000D02*
X81945D01*
X347945Y51000D02*
Y92000D01*
X314858D02*
X347945D01*
X314858Y51000D02*
Y92000D01*
Y51000D02*
X347945D01*
X345445Y270500D02*
Y311500D01*
X312358D02*
X345445D01*
X312358Y270500D02*
Y311500D01*
Y270500D02*
X345445D01*
X346945Y157000D02*
Y198000D01*
X313858D02*
X346945D01*
X313858Y157000D02*
Y198000D01*
Y157000D02*
X346945D01*
D16*
X131500Y323499D02*
Y329497D01*
X134499D01*
X135499Y328498D01*
Y326498D01*
X134499Y325499D01*
X131500D01*
X133499D02*
X135499Y323499D01*
X137498Y327498D02*
Y324499D01*
X138498Y323499D01*
X141497D01*
Y327498D01*
X143496Y323499D02*
X146495D01*
X147495Y324499D01*
X146495Y325499D01*
X144496D01*
X143496Y326498D01*
X144496Y327498D01*
X147495D01*
X149494Y329497D02*
Y323499D01*
Y326498D01*
X150494Y327498D01*
X152493D01*
X153493Y326498D01*
Y323499D01*
X156492Y322500D02*
X157492Y323499D01*
Y324499D01*
X156492D01*
Y323499D01*
X157492D01*
X156492Y322500D01*
X155492Y321500D01*
X167488Y329497D02*
Y328498D01*
X169488Y326498D01*
X171487Y328498D01*
Y329497D01*
X169488Y326498D02*
Y323499D01*
X174486D02*
X176485D01*
X177485Y324499D01*
Y326498D01*
X176485Y327498D01*
X174486D01*
X173486Y326498D01*
Y324499D01*
X174486Y323499D01*
X179484Y327498D02*
Y323499D01*
Y325499D01*
X180484Y326498D01*
X181484Y327498D01*
X182483D01*
X185483Y323499D02*
Y329497D01*
Y325499D02*
X188482Y327498D01*
X185483Y325499D02*
X188482Y323499D01*
X192480Y322500D02*
X193480Y323499D01*
Y324499D01*
X192480D01*
Y323499D01*
X193480D01*
X192480Y322500D01*
X191481Y321500D01*
X207475Y328498D02*
X206476Y329497D01*
X204476D01*
X203477Y328498D01*
Y324499D01*
X204476Y323499D01*
X206476D01*
X207475Y324499D01*
X210474Y327498D02*
X212474D01*
X213474Y326498D01*
Y323499D01*
X210474D01*
X209475Y324499D01*
X210474Y325499D01*
X213474D01*
X215473Y327498D02*
Y323499D01*
Y325499D01*
X216473Y326498D01*
X217472Y327498D01*
X218472D01*
X221471Y323499D02*
Y327498D01*
X224470D01*
X225470Y326498D01*
Y323499D01*
X228469D02*
X230468D01*
X231468Y324499D01*
Y326498D01*
X230468Y327498D01*
X228469D01*
X227469Y326498D01*
Y324499D01*
X228469Y323499D01*
X233467Y327498D02*
X235466Y323499D01*
X237466Y327498D01*
X240465D02*
X242464D01*
X243464Y326498D01*
Y323499D01*
X240465D01*
X239465Y324499D01*
X240465Y325499D01*
X243464D01*
X245463Y323499D02*
X247463D01*
X246463D01*
Y329497D01*
X245463D01*
X253461Y323499D02*
X251461D01*
X250462Y324499D01*
Y326498D01*
X251461Y327498D01*
X253461D01*
X254460Y326498D01*
Y325499D01*
X250462D01*
X163500Y338500D02*
Y344498D01*
X166499D01*
X167499Y343498D01*
Y341499D01*
X166499Y340499D01*
X163500D01*
X170498Y338500D02*
X172497D01*
X173497Y339500D01*
Y341499D01*
X172497Y342499D01*
X170498D01*
X169498Y341499D01*
Y339500D01*
X170498Y338500D01*
X175496Y342499D02*
Y339500D01*
X176496Y338500D01*
X177496Y339500D01*
X178495Y338500D01*
X179495Y339500D01*
Y342499D01*
X184493Y338500D02*
X182494D01*
X181494Y339500D01*
Y341499D01*
X182494Y342499D01*
X184493D01*
X185493Y341499D01*
Y340499D01*
X181494D01*
X187492Y342499D02*
Y338500D01*
Y340499D01*
X188492Y341499D01*
X189492Y342499D01*
X190491D01*
X199488Y344498D02*
X201488D01*
X200488D01*
Y338500D01*
X199488D01*
X201488D01*
X205486Y343498D02*
Y342499D01*
X204487D01*
X206486D01*
X205486D01*
Y339500D01*
X206486Y338500D01*
X209485Y340499D02*
Y345498D01*
Y339500D02*
Y338500D01*
X167600Y264598D02*
Y259600D01*
X168600Y258600D01*
X170599D01*
X171599Y259600D01*
Y264598D01*
X173598Y258600D02*
X175597D01*
X174598D01*
Y264598D01*
X173598Y263598D01*
X124800Y240500D02*
Y246498D01*
X127799D01*
X128799Y245498D01*
Y243499D01*
X127799Y242499D01*
X124800D01*
X126799D02*
X128799Y240500D01*
X130798D02*
X132797D01*
X131798D01*
Y246498D01*
X130798Y245498D01*
X175499Y304000D02*
Y307998D01*
X174499Y308998D01*
X172500D01*
X171500Y307998D01*
Y304000D01*
X172500Y303000D01*
X174499D01*
X173499Y304999D02*
X175499Y303000D01*
X174499D02*
X175499Y304000D01*
X177498Y303000D02*
X179497D01*
X178498D01*
Y308998D01*
X177498Y307998D01*
X201799Y100198D02*
X200799Y101198D01*
X198800D01*
X197800Y100198D01*
Y96200D01*
X198800Y95200D01*
X200799D01*
X201799Y96200D01*
X203798Y100198D02*
X204798Y101198D01*
X206797D01*
X207797Y100198D01*
Y99199D01*
X206797Y98199D01*
X205797D01*
X206797D01*
X207797Y97199D01*
Y96200D01*
X206797Y95200D01*
X204798D01*
X203798Y96200D01*
X126300Y134500D02*
Y140498D01*
X129299D01*
X130299Y139498D01*
Y137499D01*
X129299Y136499D01*
X126300D01*
X128299D02*
X130299Y134500D01*
X136297D02*
X132298D01*
X136297Y138499D01*
Y139498D01*
X135297Y140498D01*
X133298D01*
X132298Y139498D01*
X125800Y186000D02*
Y191998D01*
X128799D01*
X129799Y190998D01*
Y188999D01*
X128799Y187999D01*
X125800D01*
X127799D02*
X129799Y186000D01*
X131798Y190998D02*
X132798Y191998D01*
X134797D01*
X135797Y190998D01*
Y189999D01*
X134797Y188999D01*
X133797D01*
X134797D01*
X135797Y187999D01*
Y187000D01*
X134797Y186000D01*
X132798D01*
X131798Y187000D01*
X124300Y284500D02*
Y290498D01*
X127299D01*
X128299Y289498D01*
Y287499D01*
X127299Y286499D01*
X124300D01*
X126299D02*
X128299Y284500D01*
X133297D02*
Y290498D01*
X130298Y287499D01*
X134297D01*
X126800Y48000D02*
Y53998D01*
X129799D01*
X130799Y52998D01*
Y50999D01*
X129799Y49999D01*
X126800D01*
X132798Y48000D02*
X134797D01*
X133798D01*
Y53998D01*
X132798Y52998D01*
X303001Y113005D02*
Y111005D01*
Y112005D01*
X307999D01*
X308999Y111005D01*
Y110006D01*
X307999Y109006D01*
X308999Y115004D02*
X303001D01*
Y118003D01*
X304001Y119003D01*
X306000D01*
X307000Y118003D01*
Y115004D01*
Y117004D02*
X308999Y119003D01*
Y121002D02*
Y124001D01*
X307999Y125001D01*
X307000Y124001D01*
Y122002D01*
X306000Y121002D01*
X305000Y122002D01*
Y125001D01*
X304001Y128000D02*
X305000D01*
Y127000D01*
Y129000D01*
Y128000D01*
X307999D01*
X308999Y129000D01*
X303001Y131999D02*
X308999D01*
Y134998D01*
X307999Y135997D01*
X307000D01*
X306000Y134998D01*
Y131999D01*
Y134998D01*
X305000Y135997D01*
X304001D01*
X303001Y134998D01*
Y131999D01*
X304001Y138997D02*
X305000D01*
Y137997D01*
Y139996D01*
Y138997D01*
X307999D01*
X308999Y139996D01*
Y142995D02*
X305000D01*
Y145994D01*
X306000Y146994D01*
X308999D01*
X297001Y215504D02*
Y213505D01*
Y214504D01*
X302000D01*
X302999Y213505D01*
Y212505D01*
X302000Y211505D01*
X302999Y217503D02*
X297001D01*
X302999Y221502D01*
X297001D01*
X302999Y223501D02*
X297001D01*
Y226501D01*
X298001Y227500D01*
X300000D01*
X301000Y226501D01*
Y223501D01*
X298001Y233498D02*
X297001Y232499D01*
Y230499D01*
X298001Y229500D01*
X299001D01*
X300000Y230499D01*
Y232499D01*
X301000Y233498D01*
X302000D01*
X302999Y232499D01*
Y230499D01*
X302000Y229500D01*
X302999Y235498D02*
Y237497D01*
Y236497D01*
X299001D01*
Y235498D01*
X304999Y242495D02*
Y243495D01*
X303999Y244495D01*
X299001D01*
Y241496D01*
X300000Y240496D01*
X302000D01*
X302999Y241496D01*
Y244495D01*
X37001Y35008D02*
Y33008D01*
Y34008D01*
X41999D01*
X42999Y33008D01*
Y32009D01*
X41999Y31009D01*
X42999Y37007D02*
X37001D01*
Y40006D01*
X38001Y41006D01*
X40000D01*
X41000Y40006D01*
Y37007D01*
X39000Y43005D02*
X41999D01*
X42999Y44005D01*
X41999Y45004D01*
X42999Y46004D01*
X41999Y47004D01*
X39000D01*
Y49003D02*
X42999D01*
X41000D01*
X40000Y50003D01*
X39000Y51003D01*
Y52002D01*
X38001Y59000D02*
X37001Y58000D01*
Y56001D01*
X38001Y55001D01*
X39000D01*
X40000Y56001D01*
Y58000D01*
X41000Y59000D01*
X41999D01*
X42999Y58000D01*
Y56001D01*
X41999Y55001D01*
X39000Y60999D02*
X41999D01*
X42999Y61999D01*
X41999Y62999D01*
X42999Y63998D01*
X41999Y64998D01*
X39000D01*
X42999Y66997D02*
Y68997D01*
Y67997D01*
X39000D01*
Y66997D01*
X38001Y72996D02*
X39000D01*
Y71996D01*
Y73995D01*
Y72996D01*
X41999D01*
X42999Y73995D01*
X39000Y80993D02*
Y77994D01*
X40000Y76994D01*
X41999D01*
X42999Y77994D01*
Y80993D01*
X37001Y82992D02*
X42999D01*
X40000D01*
X39000Y83992D01*
Y85991D01*
X40000Y86991D01*
X42999D01*
X35501Y158004D02*
Y156005D01*
Y157004D01*
X40499D01*
X41499Y156005D01*
Y155005D01*
X40499Y154005D01*
X36501Y164002D02*
X35501Y163002D01*
Y161003D01*
X36501Y160003D01*
X37500D01*
X38500Y161003D01*
Y163002D01*
X39500Y164002D01*
X40499D01*
X41499Y163002D01*
Y161003D01*
X40499Y160003D01*
X41499Y167001D02*
Y169000D01*
X40499Y170000D01*
X38500D01*
X37500Y169000D01*
Y167001D01*
X38500Y166001D01*
X40499D01*
X41499Y167001D01*
Y171999D02*
Y173999D01*
Y172999D01*
X35501D01*
Y171999D01*
X37500Y177997D02*
Y179997D01*
X38500Y180997D01*
X41499D01*
Y177997D01*
X40499Y176998D01*
X39500Y177997D01*
Y180997D01*
X37500Y182996D02*
X41499D01*
X39500D01*
X38500Y183995D01*
X37500Y184995D01*
Y185995D01*
X31501Y102003D02*
Y100004D01*
Y101003D01*
X36499D01*
X37499Y100004D01*
Y99004D01*
X36499Y98004D01*
X31501Y104002D02*
X37499D01*
X35500Y106002D01*
X37499Y108001D01*
X31501D01*
X37499Y110001D02*
Y112000D01*
Y111000D01*
X33500D01*
Y110001D01*
X37499Y114999D02*
X33500D01*
Y117998D01*
X34500Y118998D01*
X37499D01*
X31501Y124996D02*
X37499D01*
Y121997D01*
X36499Y120997D01*
X34500D01*
X33500Y121997D01*
Y124996D01*
X33501Y212006D02*
Y210006D01*
Y211006D01*
X38499D01*
X39499Y210006D01*
Y209007D01*
X38499Y208007D01*
X39499Y214005D02*
X33501D01*
X39499Y218004D01*
X33501D01*
X35500Y220003D02*
X38499D01*
X39499Y221003D01*
Y224002D01*
X35500D01*
Y230000D02*
Y227001D01*
X36500Y226001D01*
X38499D01*
X39499Y227001D01*
Y230000D01*
Y231999D02*
Y233999D01*
Y232999D01*
X33501D01*
Y231999D01*
X39499Y239997D02*
Y237997D01*
X38499Y236998D01*
X36500D01*
X35500Y237997D01*
Y239997D01*
X36500Y240997D01*
X37500D01*
Y236998D01*
X35500Y243995D02*
Y245995D01*
X36500Y246994D01*
X39499D01*
Y243995D01*
X38499Y242996D01*
X37500Y243995D01*
Y246994D01*
X35500Y248994D02*
X39499D01*
X37500D01*
X36500Y249993D01*
X35500Y250993D01*
Y251993D01*
X35001Y268506D02*
Y266507D01*
Y267506D01*
X40000D01*
X40999Y266507D01*
Y265507D01*
X40000Y264507D01*
X36001Y274504D02*
X35001Y273504D01*
Y271505D01*
X36001Y270505D01*
X37001D01*
X38000Y271505D01*
Y273504D01*
X39000Y274504D01*
X40000D01*
X40999Y273504D01*
Y271505D01*
X40000Y270505D01*
X42999Y276503D02*
X37001D01*
Y279502D01*
X38000Y280502D01*
X40000D01*
X40999Y279502D01*
Y276503D01*
Y285501D02*
Y283501D01*
X40000Y282502D01*
X38000D01*
X37001Y283501D01*
Y285501D01*
X38000Y286500D01*
X39000D01*
Y282502D01*
X37001Y289499D02*
Y291498D01*
X38000Y292498D01*
X40999D01*
Y289499D01*
X40000Y288499D01*
X39000Y289499D01*
Y292498D01*
X40999Y294498D02*
X35001D01*
X39000D02*
X37001Y297497D01*
X39000Y294498D02*
X40999Y297497D01*
Y303495D02*
Y301495D01*
X40000Y300496D01*
X38000D01*
X37001Y301495D01*
Y303495D01*
X38000Y304494D01*
X39000D01*
Y300496D01*
X37001Y306494D02*
X40999D01*
X39000D01*
X38000Y307493D01*
X37001Y308493D01*
Y309493D01*
X301001Y60503D02*
Y58504D01*
Y59504D01*
X306000D01*
X306999Y58504D01*
Y57504D01*
X306000Y56504D01*
X301001Y62503D02*
Y66501D01*
X302001D01*
X306000Y62503D01*
X306999D01*
X302001Y72499D02*
X301001Y71500D01*
Y69500D01*
X302001Y68501D01*
X303001D01*
X304000Y69500D01*
Y71500D01*
X305000Y72499D01*
X306000D01*
X306999Y71500D01*
Y69500D01*
X306000Y68501D01*
X306999Y77498D02*
Y75498D01*
X306000Y74499D01*
X304000D01*
X303001Y75498D01*
Y77498D01*
X304000Y78497D01*
X305000D01*
Y74499D01*
X308999Y82496D02*
Y83496D01*
X307999Y84496D01*
X303001D01*
Y81497D01*
X304000Y80497D01*
X306000D01*
X306999Y81497D01*
Y84496D01*
X297501Y271506D02*
Y269507D01*
Y270506D01*
X302500D01*
X303499Y269507D01*
Y268507D01*
X302500Y267507D01*
X297501Y273505D02*
Y277504D01*
X298501D01*
X302500Y273505D01*
X303499D01*
X298501Y283502D02*
X297501Y282502D01*
Y280503D01*
X298501Y279503D01*
X299501D01*
X300500Y280503D01*
Y282502D01*
X301500Y283502D01*
X302500D01*
X303499Y282502D01*
Y280503D01*
X302500Y279503D01*
X303499Y288500D02*
Y286501D01*
X302500Y285502D01*
X300500D01*
X299501Y286501D01*
Y288500D01*
X300500Y289500D01*
X301500D01*
Y285502D01*
X305499Y293499D02*
Y294498D01*
X304499Y295498D01*
X299501D01*
Y292499D01*
X300500Y291499D01*
X302500D01*
X303499Y292499D01*
Y295498D01*
Y297498D02*
X297501D01*
Y300497D01*
X298501Y301496D01*
X300500D01*
X301500Y300497D01*
Y297498D01*
X299501Y303496D02*
X302500D01*
X303499Y304495D01*
X302500Y305495D01*
X303499Y306495D01*
X302500Y307494D01*
X299501D01*
Y309494D02*
X303499D01*
X301500D01*
X300500Y310493D01*
X299501Y311493D01*
Y312493D01*
X300501Y163504D02*
Y161505D01*
Y162504D01*
X305499D01*
X306499Y161505D01*
Y160505D01*
X305499Y159505D01*
X306499Y165503D02*
X300501D01*
X306499Y169502D01*
X300501D01*
X306499Y171502D02*
X300501D01*
Y174501D01*
X301501Y175500D01*
X303500D01*
X304500Y174501D01*
Y171502D01*
X306499Y177499D02*
X300501D01*
Y180499D01*
X301501Y181498D01*
X303500D01*
X304500Y180499D01*
Y177499D01*
X302500Y183498D02*
X305499D01*
X306499Y184497D01*
X305499Y185497D01*
X306499Y186497D01*
X305499Y187496D01*
X302500D01*
Y189496D02*
X306499D01*
X304500D01*
X303500Y190495D01*
X302500Y191495D01*
Y192495D01*
X112100Y95098D02*
Y90100D01*
X113100Y89100D01*
X115099D01*
X116099Y90100D01*
Y95098D01*
X122097Y89100D02*
X118098D01*
X122097Y93099D01*
Y94098D01*
X121097Y95098D01*
X119098D01*
X118098Y94098D01*
X271700Y229298D02*
Y228298D01*
X273699Y226299D01*
X275699Y228298D01*
Y229298D01*
X273699Y226299D02*
Y223300D01*
X277698D02*
X279697D01*
X278698D01*
Y229298D01*
X277698Y228298D01*
X236999Y192198D02*
X235999Y193198D01*
X234000D01*
X233000Y192198D01*
Y188200D01*
X234000Y187200D01*
X235999D01*
X236999Y188200D01*
X238998Y187200D02*
X240997D01*
X239998D01*
Y193198D01*
X238998Y192198D01*
X236999Y225698D02*
X235999Y226698D01*
X234000D01*
X233000Y225698D01*
Y221700D01*
X234000Y220700D01*
X235999D01*
X236999Y221700D01*
X242997Y220700D02*
X238998D01*
X242997Y224699D01*
Y225698D01*
X241997Y226698D01*
X239998D01*
X238998Y225698D01*
X257300Y264500D02*
Y270498D01*
X260299D01*
X261299Y269498D01*
Y267499D01*
X260299Y266499D01*
X257300D01*
X259299D02*
X261299Y264500D01*
X267297Y270498D02*
X263298D01*
Y267499D01*
X265297Y268499D01*
X266297D01*
X267297Y267499D01*
Y265500D01*
X266297Y264500D01*
X264298D01*
X263298Y265500D01*
X234800Y146000D02*
Y151998D01*
X237799D01*
X238799Y150998D01*
Y148999D01*
X237799Y147999D01*
X234800D01*
X236799D02*
X238799Y146000D01*
X244797Y151998D02*
X242797Y150998D01*
X240798Y148999D01*
Y147000D01*
X241798Y146000D01*
X243797D01*
X244797Y147000D01*
Y147999D01*
X243797Y148999D01*
X240798D01*
M02*
