M48
;Layer_Color=9474304
;FILE_FORMAT=2:4
INCH,TZ
;TYPE=PLATED
T1F00S00C0.0256
T2F00S00C0.0276
T3F00S00C0.0315
T4F00S00C0.0335
T5F00S00C0.0354
T6F00S00C0.0433
T7F00S00C0.0510
%
T01
X23850Y11409
Y13991
X13000Y12841
Y10259
X12950Y15409
Y17991
X12850Y20859
Y23441
X12800Y25259
Y27841
X26100Y25841
Y23259
T02
X23516Y17550
X25484
Y20900
X23516
X28100Y20461
Y19500
Y18539
T03
X17665Y28800
X18250Y29300
X18835Y28800
T04
X22684Y7200
X20716
T05
X17000Y12050
Y13050
Y14050
Y15050
Y16050
Y17050
Y18050
Y19050
Y20050
Y21050
X20000
Y20050
Y19050
Y18050
Y17050
Y16050
Y15050
Y14050
Y13050
Y12050
Y22050
Y23050
Y24050
Y25050
X17000
Y24050
Y23050
Y22050
T06
X13200Y2850
Y3850
Y7450
X14200
X12200
T07
X6700Y5200
X33150Y6150
Y8150
X33000Y11400
Y13400
X33050Y16750
Y18750
X6700Y17850
Y15850
Y12300
Y10300
Y7200
X6600Y22050
Y24050
X6550Y27750
Y29750
X32900Y30100
Y28100
X33050Y23850
Y21850
M30
