  0
SECTION
  2
HEADER
  9
$ACADVER
  1
AC1014
  9
$HANDSEED
  5
FFFF
  9
$MEASUREMENT
 70
     1
  0
ENDSEC
  0
SECTION
  2
TABLES
  0
TABLE
  2
VPORT
  5
8
330
0
100
AcDbSymbolTable
 70
     4
  0
VPORT
  5
2E
330
8
100
AcDbSymbolTableRecord
100
AcDbViewportTableRecord
  2
*ACTIVE
 70
     0
 10
0.0
 20
0.0
 11
1.0
 21
1.0
 12
210.0
 22
148.5
 13
0.0
 23
0.0
 14
10.0
 24
10.0
 15
10.0
 25
10.0
 16
0.0
 26
0.0
 36
1.0
 17
0.0
 27
0.0
 37
0.0
 40
341.0
 41
1.24
 42
50.0
 43
0.0
 44
0.0
 50
0.0
 51
0.0
 71
     0
 72
   100
 73
     1
 74
     3
 75
     0
 76
     0
 77
     0
 78
     0
  0
ENDTAB
  0
TABLE
  2
LTYPE
  5
5
330
0
100
AcDbSymbolTable
 70
     1
  0
LTYPE
  5
14
330
5
100
AcDbSymbolTableRecord
100
AcDbLinetypeTableRecord
  2
BYBLOCK
 70
     0
  3

 72
    65
 73
     0
 40
0.0
  0
LTYPE
  5
15
330
5
100
AcDbSymbolTableRecord
100
AcDbLinetypeTableRecord
  2
BYLAYER
 70
     0
  3

 72
    65
 73
     0
 40
0.0
  0
LTYPE
  5
16
330
5
100
AcDbSymbolTableRecord
100
AcDbLinetypeTableRecord
  2
CONTINUOUS
 70
     0
  3
Solid line
 72
    65
 73
     0
 40
0.0
  0
ENDTAB
  0
TABLE
  2
LAYER
  5
2
100
AcDbSymbolTable
 70
2
  0
LAYER
  5
50
100
AcDbSymbolTableRecord
100
AcDbLayerTableRecord
  2
0
 70
0
  6
CONTINUOUS
  0
LAYER
  5
51
100
AcDbSymbolTableRecord
100
AcDbLayerTableRecord
  2
Layer_1
 70
0
  6
CONTINUOUS
  0
ENDTAB
  0
TABLE
  2
STYLE
  5
3
330
0
100
AcDbSymbolTable
 70
     1
  0
STYLE
  5
11
330
3
100
AcDbSymbolTableRecord
100
AcDbTextStyleTableRecord
  2
STANDARD
 70
     0
 40
0.0
 41
1.0
 50
0.0
 71
     0
 42
2.5
  3
txt
  4

  0
ENDTAB
  0
TABLE
  2
VIEW
  5
6
330
0
100
AcDbSymbolTable
 70
     0
  0
ENDTAB
  0
TABLE
  2
UCS
  5
7
330
0
100
AcDbSymbolTable
 70
     0
  0
ENDTAB
  0
TABLE
  2
APPID
  5
9
330
0
100
AcDbSymbolTable
 70
     2
  0
APPID
  5
12
330
9
100
AcDbSymbolTableRecord
100
AcDbRegAppTableRecord
  2
ACAD
 70
     0
  0
ENDTAB
  0
TABLE
  2
DIMSTYLE
  5
A
330
0
100
AcDbSymbolTable
 70
     1
  0
DIMSTYLE
105
27
330
A
100
AcDbSymbolTableRecord
100
AcDbDimStyleTableRecord
  2
ISO-25
 70
     0
  3

  4

  5

  6

  7

 40
1.0
 41
2.5
 42
0.625
 43
3.75
 44
1.25
 45
0.0
 46
0.0
 47
0.0
 48
0.0
140
2.5
141
2.5
142
0.0
143
0.03937007874016
144
1.0
145
0.0
146
1.0
147
0.625
 71
     0
 72
     0
 73
     0
 74
     0
 75
     0
 76
     0
 77
     1
 78
     8
170
     0
171
     3
172
     1
173
     0
174
     0
175
     0
176
     0
177
     0
178
     0
270
     2
271
     2
272
     2
273
     2
274
     3
340
11
275
     0
280
     0
281
     0
282
     0
283
     0
284
     8
285
     0
286
     0
287
     3
288
     0
  0
ENDTAB
  0
TABLE
  2
BLOCK_RECORD
  5
1
330
0
100
AcDbSymbolTable
 70
     1
  0
BLOCK_RECORD
  5
1F
330
1
100
AcDbSymbolTableRecord
100
AcDbBlockTableRecord
  2
*MODEL_SPACE
  0
BLOCK_RECORD
  5
1B
330
1
100
AcDbSymbolTableRecord
100
AcDbBlockTableRecord
  2
*PAPER_SPACE
  0
ENDTAB
  0
ENDSEC
  0
SECTION
  2
BLOCKS
  0
BLOCK
  5
20
330
1F
100
AcDbEntity
  8
0
100
AcDbBlockBegin
  2
*MODEL_SPACE
 70
     0
 10
0.0
 20
0.0
 30
0.0
  3
*MODEL_SPACE
  1

  0
ENDBLK
  5
21
330
1F
100
AcDbEntity
  8
0
100
AcDbBlockEnd
  0
BLOCK
  5
1C
330
1B
100
AcDbEntity
 67
     1
  8
0
100
AcDbBlockBegin
  2
*PAPER_SPACE
  1

  0
ENDBLK
  5
1D
330
1B
100
AcDbEntity
 67
     1
  8
0
100
AcDbBlockEnd
  0
ENDSEC
  0
SECTION
  2
ENTITIES
  0
LWPOLYLINE
  5
100
100
AcDbEntity
  8
Layer_1
 62
7
100
AcDbPolyline
 90
4
 70
1
 10
0.825851
 20
95.196274
 30
0.0
 10
12.813859
 20
95.196274
 30
0.0
 10
12.813859
 20
87.208264
 30
0.0
 10
0.825851
 20
87.208264
 30
0.0
  0
LWPOLYLINE
  5
101
100
AcDbEntity
  8
Layer_1
 62
7
100
AcDbPolyline
 90
4
 70
1
 10
17.463566
 20
85.835535
 30
0.0
 10
29.451575
 20
85.835535
 30
0.0
 10
29.451575
 20
77.847526
 30
0.0
 10
17.463566
 20
77.847526
 30
0.0
  0
LWPOLYLINE
  5
102
100
AcDbEntity
  8
Layer_1
 62
7
100
AcDbPolyline
 90
4
 70
1
 10
13.102978
 20
95.175407
 30
0.0
 10
24.841300
 20
95.175407
 30
0.0
 10
24.841300
 20
87.437085
 30
0.0
 10
13.102978
 20
87.437085
 30
0.0
  0
LWPOLYLINE
  5
103
100
AcDbEntity
  8
Layer_1
 62
7
100
AcDbPolyline
 90
4
 70
1
 10
0.830625
 20
86.902531
 30
0.0
 10
12.824631
 20
86.902531
 30
0.0
 10
12.824631
 20
84.908524
 30
0.0
 10
0.830625
 20
84.908524
 30
0.0
  0
LWPOLYLINE
  5
104
100
AcDbEntity
  8
Layer_1
 62
7
100
AcDbPolyline
 90
4
 70
1
 10
0.885138
 20
82.380940
 30
0.0
 10
8.630321
 20
82.380940
 30
0.0
 10
8.630321
 20
80.385756
 30
0.0
 10
0.885138
 20
80.385756
 30
0.0
  0
LWPOLYLINE
  5
105
100
AcDbEntity
  8
Layer_1
 62
7
100
AcDbPolyline
 90
4
 70
1
 10
8.891489
 20
82.364452
 30
0.0
 10
16.636673
 20
82.364452
 30
0.0
 10
16.636673
 20
80.369268
 30
0.0
 10
8.891489
 20
80.369268
 30
0.0
  0
LWPOLYLINE
  5
106
100
AcDbEntity
  8
Layer_1
 62
7
100
AcDbPolyline
 90
4
 70
1
 10
0.830553
 20
84.664663
 30
0.0
 10
12.824560
 20
84.664663
 30
0.0
 10
12.824560
 20
82.670655
 30
0.0
 10
0.830553
 20
82.670655
 30
0.0
  0
LWPOLYLINE
  5
107
100
AcDbEntity
  8
Layer_1
 62
7
100
AcDbPolyline
 90
4
 70
1
 10
4.870508
 20
78.344875
 30
0.0
 10
0.961890
 20
78.344875
 30
0.0
 10
0.961890
 20
80.215126
 30
0.0
 10
3.456085
 20
80.215126
 30
0.0
  0
LWPOLYLINE
  5
108
100
AcDbEntity
  8
Layer_1
 62
7
100
AcDbPolyline
 90
4
 70
1
 10
3.646305
 20
80.214854
 30
0.0
 10
7.554922
 20
80.214854
 30
0.0
 10
7.554922
 20
78.344603
 30
0.0
 10
5.060727
 20
78.344603
 30
0.0
  0
LWPOLYLINE
  5
109
100
AcDbEntity
  8
Layer_1
 62
7
100
AcDbPolyline
 90
4
 70
1
 10
11.773662
 20
78.319533
 30
0.0
 10
7.865044
 20
78.319533
 30
0.0
 10
7.865044
 20
80.189785
 30
0.0
 10
10.359239
 20
80.189785
 30
0.0
  0
LWPOLYLINE
  5
10a
100
AcDbEntity
  8
Layer_1
 62
7
100
AcDbPolyline
 90
4
 70
1
 10
10.549458
 20
80.189513
 30
0.0
 10
14.458076
 20
80.189513
 30
0.0
 10
14.458076
 20
78.319262
 30
0.0
 10
11.963881
 20
78.319262
 30
0.0
  0
LWPOLYLINE
  5
10b
100
AcDbEntity
  8
Layer_1
 62
7
100
AcDbPolyline
 90
4
 70
1
 10
4.859513
 20
76.280809
 30
0.0
 10
0.950895
 20
76.280809
 30
0.0
 10
0.950895
 20
78.151060
 30
0.0
 10
3.445090
 20
78.151060
 30
0.0
  0
LWPOLYLINE
  5
10c
100
AcDbEntity
  8
Layer_1
 62
7
100
AcDbPolyline
 90
4
 70
1
 10
3.635309
 20
78.150788
 30
0.0
 10
7.543927
 20
78.150788
 30
0.0
 10
7.543927
 20
76.280537
 30
0.0
 10
5.049732
 20
76.280537
 30
0.0
  0
LWPOLYLINE
  5
10d
100
AcDbEntity
  8
Layer_1
 62
7
100
AcDbPolyline
 90
4
 70
1
 10
11.801461
 20
76.237946
 30
0.0
 10
7.892843
 20
76.237946
 30
0.0
 10
7.892843
 20
78.108198
 30
0.0
 10
10.387038
 20
78.108198
 30
0.0
  0
LWPOLYLINE
  5
10e
100
AcDbEntity
  8
Layer_1
 62
7
100
AcDbPolyline
 90
4
 70
1
 10
10.577257
 20
78.107926
 30
0.0
 10
14.485876
 20
78.107926
 30
0.0
 10
14.485876
 20
76.237675
 30
0.0
 10
11.991680
 20
76.237675
 30
0.0
  0
LWPOLYLINE
  5
10f
100
AcDbEntity
  8
Layer_1
 62
7
100
AcDbPolyline
 90
4
 70
1
 10
1.455312
 20
86.285522
 30
0.0
 10
3.451107
 20
86.285522
 30
0.0
 10
3.451107
 20
85.519727
 30
0.0
 10
1.455312
 20
85.519727
 30
0.0
  0
SPLINE
  5
110
100
AcDbEntity
  8
Layer_1
 62
7
100
AcDbSpline
 70
8
 71
3
 72
8
 73
4
 74
0
 40
0
 40
0
 40
0
 40
0
 40
1
 40
1
 40
1
 40
1
 10
4.418048
 20
86.396694
 30
0.0
 10
4.436196
 20
86.396694
 30
0.0
 10
4.453602
 20
86.389485
 30
0.0
 10
4.466435
 20
86.376652
 30
0.0
  0
SPLINE
  5
111
100
AcDbEntity
  8
Layer_1
 62
7
100
AcDbSpline
 70
8
 71
3
 72
8
 73
4
 74
0
 40
0
 40
0
 40
0
 40
0
 40
1
 40
1
 40
1
 40
1
 10
4.466435
 20
86.376652
 30
0.0
 10
4.479268
 20
86.363818
 30
0.0
 10
4.486477
 20
86.346413
 30
0.0
 10
4.486477
 20
86.328264
 30
0.0
  0
LWPOLYLINE
  5
112
100
AcDbEntity
  8
Layer_1
 62
7
100
AcDbPolyline
 90
2
 70
0
 10
4.425036
 20
86.396694
 30
0.0
 10
4.418048
 20
86.396694
 30
0.0
  0
SPLINE
  5
113
100
AcDbEntity
  8
Layer_1
 62
7
100
AcDbSpline
 70
8
 71
3
 72
8
 73
4
 74
0
 40
0
 40
0
 40
0
 40
0
 40
1
 40
1
 40
1
 40
1
 10
4.486477
 20
85.443908
 30
0.0
 10
4.486477
 20
85.425760
 30
0.0
 10
4.479268
 20
85.408354
 30
0.0
 10
4.466435
 20
85.395521
 30
0.0
  0
SPLINE
  5
114
100
AcDbEntity
  8
Layer_1
 62
7
100
AcDbSpline
 70
8
 71
3
 72
8
 73
4
 74
0
 40
0
 40
0
 40
0
 40
0
 40
1
 40
1
 40
1
 40
1
 10
4.466435
 20
85.395521
 30
0.0
 10
4.453602
 20
85.382688
 30
0.0
 10
4.436196
 20
85.375479
 30
0.0
 10
4.418048
 20
85.375479
 30
0.0
  0
LWPOLYLINE
  5
115
100
AcDbEntity
  8
Layer_1
 62
7
100
AcDbPolyline
 90
2
 70
0
 10
4.486477
 20
86.328264
 30
0.0
 10
4.486477
 20
85.443908
 30
0.0
  0
SPLINE
  5
116
100
AcDbEntity
  8
Layer_1
 62
7
100
AcDbSpline
 70
8
 71
3
 72
8
 73
4
 74
0
 40
0
 40
0
 40
0
 40
0
 40
1
 40
1
 40
1
 40
1
 10
4.425036
 20
85.375479
 30
0.0
 10
4.406887
 20
85.375479
 30
0.0
 10
4.389482
 20
85.382688
 30
0.0
 10
4.376648
 20
85.395521
 30
0.0
  0
SPLINE
  5
117
100
AcDbEntity
  8
Layer_1
 62
7
100
AcDbSpline
 70
8
 71
3
 72
8
 73
4
 74
0
 40
0
 40
0
 40
0
 40
0
 40
1
 40
1
 40
1
 40
1
 10
4.376648
 20
85.395521
 30
0.0
 10
4.363815
 20
85.408354
 30
0.0
 10
4.356606
 20
85.425760
 30
0.0
 10
4.356606
 20
85.443908
 30
0.0
  0
LWPOLYLINE
  5
118
100
AcDbEntity
  8
Layer_1
 62
7
100
AcDbPolyline
 90
2
 70
0
 10
4.418048
 20
85.375479
 30
0.0
 10
4.425036
 20
85.375479
 30
0.0
  0
SPLINE
  5
119
100
AcDbEntity
  8
Layer_1
 62
7
100
AcDbSpline
 70
8
 71
3
 72
8
 73
4
 74
0
 40
0
 40
0
 40
0
 40
0
 40
1
 40
1
 40
1
 40
1
 10
4.356606
 20
86.328264
 30
0.0
 10
4.356606
 20
86.346413
 30
0.0
 10
4.363815
 20
86.363818
 30
0.0
 10
4.376648
 20
86.376652
 30
0.0
  0
SPLINE
  5
11a
100
AcDbEntity
  8
Layer_1
 62
7
100
AcDbSpline
 70
8
 71
3
 72
8
 73
4
 74
0
 40
0
 40
0
 40
0
 40
0
 40
1
 40
1
 40
1
 40
1
 10
4.376648
 20
86.376652
 30
0.0
 10
4.389482
 20
86.389485
 30
0.0
 10
4.406887
 20
86.396694
 30
0.0
 10
4.425036
 20
86.396694
 30
0.0
  0
LWPOLYLINE
  5
11b
100
AcDbEntity
  8
Layer_1
 62
7
100
AcDbPolyline
 90
2
 70
0
 10
4.356606
 20
85.443908
 30
0.0
 10
4.356606
 20
86.328264
 30
0.0
  0
LWPOLYLINE
  5
11c
100
AcDbEntity
  8
Layer_1
 62
7
100
AcDbPolyline
 90
1
 70
1
 10
4.425036
 20
86.396694
 30
0.0
  0
SPLINE
  5
11d
100
AcDbEntity
  8
Layer_1
 62
7
100
AcDbSpline
 70
8
 71
3
 72
8
 73
4
 74
0
 40
0
 40
0
 40
0
 40
0
 40
1
 40
1
 40
1
 40
1
 10
4.212672
 20
86.351146
 30
0.0
 10
4.232900
 20
86.351146
 30
0.0
 10
4.252299
 20
86.343110
 30
0.0
 10
4.266602
 20
86.328807
 30
0.0
  0
SPLINE
  5
11e
100
AcDbEntity
  8
Layer_1
 62
7
100
AcDbSpline
 70
8
 71
3
 72
8
 73
4
 74
0
 40
0
 40
0
 40
0
 40
0
 40
1
 40
1
 40
1
 40
1
 10
4.266602
 20
86.328807
 30
0.0
 10
4.280905
 20
86.314504
 30
0.0
 10
4.288940
 20
86.295105
 30
0.0
 10
4.288940
 20
86.274878
 30
0.0
  0
LWPOLYLINE
  5
11f
100
AcDbEntity
  8
Layer_1
 62
7
100
AcDbPolyline
 90
2
 70
0
 10
4.235112
 20
86.351146
 30
0.0
 10
4.212672
 20
86.351146
 30
0.0
  0
SPLINE
  5
120
100
AcDbEntity
  8
Layer_1
 62
7
100
AcDbSpline
 70
8
 71
3
 72
8
 73
4
 74
0
 40
0
 40
0
 40
0
 40
0
 40
1
 40
1
 40
1
 40
1
 10
4.288940
 20
85.497295
 30
0.0
 10
4.288940
 20
85.477067
 30
0.0
 10
4.280905
 20
85.457668
 30
0.0
 10
4.266602
 20
85.443365
 30
0.0
  0
SPLINE
  5
121
100
AcDbEntity
  8
Layer_1
 62
7
100
AcDbSpline
 70
8
 71
3
 72
8
 73
4
 74
0
 40
0
 40
0
 40
0
 40
0
 40
1
 40
1
 40
1
 40
1
 10
4.266602
 20
85.443365
 30
0.0
 10
4.252299
 20
85.429062
 30
0.0
 10
4.232900
 20
85.421027
 30
0.0
 10
4.212672
 20
85.421027
 30
0.0
  0
LWPOLYLINE
  5
122
100
AcDbEntity
  8
Layer_1
 62
7
100
AcDbPolyline
 90
2
 70
0
 10
4.288940
 20
86.274878
 30
0.0
 10
4.288940
 20
85.497295
 30
0.0
  0
SPLINE
  5
123
100
AcDbEntity
  8
Layer_1
 62
7
100
AcDbSpline
 70
8
 71
3
 72
8
 73
4
 74
0
 40
0
 40
0
 40
0
 40
0
 40
1
 40
1
 40
1
 40
1
 10
4.235112
 20
85.421027
 30
0.0
 10
4.214884
 20
85.421027
 30
0.0
 10
4.195485
 20
85.429062
 30
0.0
 10
4.181182
 20
85.443365
 30
0.0
  0
SPLINE
  5
124
100
AcDbEntity
  8
Layer_1
 62
7
100
AcDbSpline
 70
8
 71
3
 72
8
 73
4
 74
0
 40
0
 40
0
 40
0
 40
0
 40
1
 40
1
 40
1
 40
1
 10
4.181182
 20
85.443365
 30
0.0
 10
4.166879
 20
85.457668
 30
0.0
 10
4.158844
 20
85.477067
 30
0.0
 10
4.158844
 20
85.497295
 30
0.0
  0
LWPOLYLINE
  5
125
100
AcDbEntity
  8
Layer_1
 62
7
100
AcDbPolyline
 90
2
 70
0
 10
4.212672
 20
85.421027
 30
0.0
 10
4.235112
 20
85.421027
 30
0.0
  0
SPLINE
  5
126
100
AcDbEntity
  8
Layer_1
 62
7
100
AcDbSpline
 70
8
 71
3
 72
8
 73
4
 74
0
 40
0
 40
0
 40
0
 40
0
 40
1
 40
1
 40
1
 40
1
 10
4.158844
 20
86.274878
 30
0.0
 10
4.158844
 20
86.295105
 30
0.0
 10
4.166879
 20
86.314504
 30
0.0
 10
4.181182
 20
86.328807
 30
0.0
  0
SPLINE
  5
127
100
AcDbEntity
  8
Layer_1
 62
7
100
AcDbSpline
 70
8
 71
3
 72
8
 73
4
 74
0
 40
0
 40
0
 40
0
 40
0
 40
1
 40
1
 40
1
 40
1
 10
4.181182
 20
86.328807
 30
0.0
 10
4.195485
 20
86.343110
 30
0.0
 10
4.214884
 20
86.351146
 30
0.0
 10
4.235112
 20
86.351146
 30
0.0
  0
LWPOLYLINE
  5
128
100
AcDbEntity
  8
Layer_1
 62
7
100
AcDbPolyline
 90
2
 70
0
 10
4.158844
 20
85.497295
 30
0.0
 10
4.158844
 20
86.274878
 30
0.0
  0
LWPOLYLINE
  5
129
100
AcDbEntity
  8
Layer_1
 62
7
100
AcDbPolyline
 90
1
 70
1
 10
4.235112
 20
86.351146
 30
0.0
  0
SPLINE
  5
12a
100
AcDbEntity
  8
Layer_1
 62
7
100
AcDbSpline
 70
8
 71
3
 72
8
 73
4
 74
0
 40
0
 40
0
 40
0
 40
0
 40
1
 40
1
 40
1
 40
1
 10
4.604414
 20
86.351146
 30
0.0
 10
4.624641
 20
86.351146
 30
0.0
 10
4.644040
 20
86.343110
 30
0.0
 10
4.658343
 20
86.328807
 30
0.0
  0
SPLINE
  5
12b
100
AcDbEntity
  8
Layer_1
 62
7
100
AcDbSpline
 70
8
 71
3
 72
8
 73
4
 74
0
 40
0
 40
0
 40
0
 40
0
 40
1
 40
1
 40
1
 40
1
 10
4.658343
 20
86.328807
 30
0.0
 10
4.672646
 20
86.314504
 30
0.0
 10
4.680681
 20
86.295105
 30
0.0
 10
4.680681
 20
86.274878
 30
0.0
  0
LWPOLYLINE
  5
12c
100
AcDbEntity
  8
Layer_1
 62
7
100
AcDbPolyline
 90
2
 70
0
 10
4.626853
 20
86.351146
 30
0.0
 10
4.604414
 20
86.351146
 30
0.0
  0
SPLINE
  5
12d
100
AcDbEntity
  8
Layer_1
 62
7
100
AcDbSpline
 70
8
 71
3
 72
8
 73
4
 74
0
 40
0
 40
0
 40
0
 40
0
 40
1
 40
1
 40
1
 40
1
 10
4.680681
 20
85.497295
 30
0.0
 10
4.680681
 20
85.477067
 30
0.0
 10
4.672646
 20
85.457668
 30
0.0
 10
4.658343
 20
85.443365
 30
0.0
  0
SPLINE
  5
12e
100
AcDbEntity
  8
Layer_1
 62
7
100
AcDbSpline
 70
8
 71
3
 72
8
 73
4
 74
0
 40
0
 40
0
 40
0
 40
0
 40
1
 40
1
 40
1
 40
1
 10
4.658343
 20
85.443365
 30
0.0
 10
4.644040
 20
85.429062
 30
0.0
 10
4.624641
 20
85.421027
 30
0.0
 10
4.604414
 20
85.421027
 30
0.0
  0
LWPOLYLINE
  5
12f
100
AcDbEntity
  8
Layer_1
 62
7
100
AcDbPolyline
 90
2
 70
0
 10
4.680681
 20
86.274878
 30
0.0
 10
4.680681
 20
85.497295
 30
0.0
  0
SPLINE
  5
130
100
AcDbEntity
  8
Layer_1
 62
7
100
AcDbSpline
 70
8
 71
3
 72
8
 73
4
 74
0
 40
0
 40
0
 40
0
 40
0
 40
1
 40
1
 40
1
 40
1
 10
4.626853
 20
85.421027
 30
0.0
 10
4.606626
 20
85.421027
 30
0.0
 10
4.587227
 20
85.429062
 30
0.0
 10
4.572924
 20
85.443365
 30
0.0
  0
SPLINE
  5
131
100
AcDbEntity
  8
Layer_1
 62
7
100
AcDbSpline
 70
8
 71
3
 72
8
 73
4
 74
0
 40
0
 40
0
 40
0
 40
0
 40
1
 40
1
 40
1
 40
1
 10
4.572924
 20
85.443365
 30
0.0
 10
4.558621
 20
85.457668
 30
0.0
 10
4.550585
 20
85.477067
 30
0.0
 10
4.550585
 20
85.497295
 30
0.0
  0
LWPOLYLINE
  5
132
100
AcDbEntity
  8
Layer_1
 62
7
100
AcDbPolyline
 90
2
 70
0
 10
4.604414
 20
85.421027
 30
0.0
 10
4.626853
 20
85.421027
 30
0.0
  0
SPLINE
  5
133
100
AcDbEntity
  8
Layer_1
 62
7
100
AcDbSpline
 70
8
 71
3
 72
8
 73
4
 74
0
 40
0
 40
0
 40
0
 40
0
 40
1
 40
1
 40
1
 40
1
 10
4.550585
 20
86.274878
 30
0.0
 10
4.550585
 20
86.295105
 30
0.0
 10
4.558621
 20
86.314504
 30
0.0
 10
4.572924
 20
86.328807
 30
0.0
  0
SPLINE
  5
134
100
AcDbEntity
  8
Layer_1
 62
7
100
AcDbSpline
 70
8
 71
3
 72
8
 73
4
 74
0
 40
0
 40
0
 40
0
 40
0
 40
1
 40
1
 40
1
 40
1
 10
4.572924
 20
86.328807
 30
0.0
 10
4.587227
 20
86.343110
 30
0.0
 10
4.606626
 20
86.351146
 30
0.0
 10
4.626853
 20
86.351146
 30
0.0
  0
LWPOLYLINE
  5
135
100
AcDbEntity
  8
Layer_1
 62
7
100
AcDbPolyline
 90
2
 70
0
 10
4.550585
 20
85.497295
 30
0.0
 10
4.550585
 20
86.274878
 30
0.0
  0
LWPOLYLINE
  5
136
100
AcDbEntity
  8
Layer_1
 62
7
100
AcDbPolyline
 90
1
 70
1
 10
4.626853
 20
86.351146
 30
0.0
  0
SPLINE
  5
137
100
AcDbEntity
  8
Layer_1
 62
7
100
AcDbSpline
 70
8
 71
3
 72
8
 73
4
 74
0
 40
0
 40
0
 40
0
 40
0
 40
1
 40
1
 40
1
 40
1
 10
4.029181
 20
86.146289
 30
0.0
 10
4.046591
 20
86.146289
 30
0.0
 10
4.063287
 20
86.139373
 30
0.0
 10
4.075598
 20
86.127063
 30
0.0
  0
SPLINE
  5
138
100
AcDbEntity
  8
Layer_1
 62
7
100
AcDbSpline
 70
8
 71
3
 72
8
 73
4
 74
0
 40
0
 40
0
 40
0
 40
0
 40
1
 40
1
 40
1
 40
1
 10
4.075598
 20
86.127063
 30
0.0
 10
4.087908
 20
86.114752
 30
0.0
 10
4.094824
 20
86.098056
 30
0.0
 10
4.094824
 20
86.080647
 30
0.0
  0
LWPOLYLINE
  5
139
100
AcDbEntity
  8
Layer_1
 62
7
100
AcDbPolyline
 90
1
 70
1
 10
4.029181
 20
86.146289
 30
0.0
  0
SPLINE
  5
13a
100
AcDbEntity
  8
Layer_1
 62
7
100
AcDbSpline
 70
8
 71
3
 72
8
 73
4
 74
0
 40
0
 40
0
 40
0
 40
0
 40
1
 40
1
 40
1
 40
1
 10
4.094824
 20
85.691526
 30
0.0
 10
4.094824
 20
85.674117
 30
0.0
 10
4.087908
 20
85.657420
 30
0.0
 10
4.075598
 20
85.645110
 30
0.0
  0
SPLINE
  5
13b
100
AcDbEntity
  8
Layer_1
 62
7
100
AcDbSpline
 70
8
 71
3
 72
8
 73
4
 74
0
 40
0
 40
0
 40
0
 40
0
 40
1
 40
1
 40
1
 40
1
 10
4.075598
 20
85.645110
 30
0.0
 10
4.063287
 20
85.632800
 30
0.0
 10
4.046591
 20
85.625884
 30
0.0
 10
4.029181
 20
85.625884
 30
0.0
  0
LWPOLYLINE
  5
13c
100
AcDbEntity
  8
Layer_1
 62
7
100
AcDbPolyline
 90
2
 70
0
 10
4.094824
 20
86.080647
 30
0.0
 10
4.094824
 20
85.691526
 30
0.0
  0
SPLINE
  5
13d
100
AcDbEntity
  8
Layer_1
 62
7
100
AcDbSpline
 70
8
 71
3
 72
8
 73
4
 74
0
 40
0
 40
0
 40
0
 40
0
 40
1
 40
1
 40
1
 40
1
 10
4.029181
 20
85.625884
 30
0.0
 10
4.011772
 20
85.625884
 30
0.0
 10
3.995076
 20
85.632800
 30
0.0
 10
3.982765
 20
85.645110
 30
0.0
  0
SPLINE
  5
13e
100
AcDbEntity
  8
Layer_1
 62
7
100
AcDbSpline
 70
8
 71
3
 72
8
 73
4
 74
0
 40
0
 40
0
 40
0
 40
0
 40
1
 40
1
 40
1
 40
1
 10
3.982765
 20
85.645110
 30
0.0
 10
3.970455
 20
85.657420
 30
0.0
 10
3.963539
 20
85.674117
 30
0.0
 10
3.963539
 20
85.691526
 30
0.0
  0
LWPOLYLINE
  5
13f
100
AcDbEntity
  8
Layer_1
 62
7
100
AcDbPolyline
 90
1
 70
1
 10
4.029181
 20
85.625884
 30
0.0
  0
SPLINE
  5
140
100
AcDbEntity
  8
Layer_1
 62
7
100
AcDbSpline
 70
8
 71
3
 72
8
 73
4
 74
0
 40
0
 40
0
 40
0
 40
0
 40
1
 40
1
 40
1
 40
1
 10
3.963539
 20
86.080647
 30
0.0
 10
3.963539
 20
86.098056
 30
0.0
 10
3.970455
 20
86.114752
 30
0.0
 10
3.982765
 20
86.127063
 30
0.0
  0
SPLINE
  5
141
100
AcDbEntity
  8
Layer_1
 62
7
100
AcDbSpline
 70
8
 71
3
 72
8
 73
4
 74
0
 40
0
 40
0
 40
0
 40
0
 40
1
 40
1
 40
1
 40
1
 10
3.982765
 20
86.127063
 30
0.0
 10
3.995076
 20
86.139373
 30
0.0
 10
4.011772
 20
86.146289
 30
0.0
 10
4.029181
 20
86.146289
 30
0.0
  0
LWPOLYLINE
  5
142
100
AcDbEntity
  8
Layer_1
 62
7
100
AcDbPolyline
 90
2
 70
0
 10
3.963539
 20
85.691526
 30
0.0
 10
3.963539
 20
86.080647
 30
0.0
  0
LWPOLYLINE
  5
143
100
AcDbEntity
  8
Layer_1
 62
7
100
AcDbPolyline
 90
1
 70
1
 10
4.029181
 20
86.146289
 30
0.0
  0
SPLINE
  5
144
100
AcDbEntity
  8
Layer_1
 62
7
100
AcDbSpline
 70
8
 71
3
 72
8
 73
4
 74
0
 40
0
 40
0
 40
0
 40
0
 40
1
 40
1
 40
1
 40
1
 10
4.818959
 20
86.146289
 30
0.0
 10
4.836369
 20
86.146289
 30
0.0
 10
4.853065
 20
86.139373
 30
0.0
 10
4.865376
 20
86.127063
 30
0.0
  0
SPLINE
  5
145
100
AcDbEntity
  8
Layer_1
 62
7
100
AcDbSpline
 70
8
 71
3
 72
8
 73
4
 74
0
 40
0
 40
0
 40
0
 40
0
 40
1
 40
1
 40
1
 40
1
 10
4.865376
 20
86.127063
 30
0.0
 10
4.877686
 20
86.114752
 30
0.0
 10
4.884602
 20
86.098056
 30
0.0
 10
4.884602
 20
86.080647
 30
0.0
  0
LWPOLYLINE
  5
146
100
AcDbEntity
  8
Layer_1
 62
7
100
AcDbPolyline
 90
1
 70
1
 10
4.818959
 20
86.146289
 30
0.0
  0
SPLINE
  5
147
100
AcDbEntity
  8
Layer_1
 62
7
100
AcDbSpline
 70
8
 71
3
 72
8
 73
4
 74
0
 40
0
 40
0
 40
0
 40
0
 40
1
 40
1
 40
1
 40
1
 10
4.884602
 20
85.691526
 30
0.0
 10
4.884602
 20
85.674117
 30
0.0
 10
4.877686
 20
85.657420
 30
0.0
 10
4.865376
 20
85.645110
 30
0.0
  0
SPLINE
  5
148
100
AcDbEntity
  8
Layer_1
 62
7
100
AcDbSpline
 70
8
 71
3
 72
8
 73
4
 74
0
 40
0
 40
0
 40
0
 40
0
 40
1
 40
1
 40
1
 40
1
 10
4.865376
 20
85.645110
 30
0.0
 10
4.853065
 20
85.632800
 30
0.0
 10
4.836369
 20
85.625884
 30
0.0
 10
4.818959
 20
85.625884
 30
0.0
  0
LWPOLYLINE
  5
149
100
AcDbEntity
  8
Layer_1
 62
7
100
AcDbPolyline
 90
2
 70
0
 10
4.884602
 20
86.080647
 30
0.0
 10
4.884602
 20
85.691526
 30
0.0
  0
SPLINE
  5
14a
100
AcDbEntity
  8
Layer_1
 62
7
100
AcDbSpline
 70
8
 71
3
 72
8
 73
4
 74
0
 40
0
 40
0
 40
0
 40
0
 40
1
 40
1
 40
1
 40
1
 10
4.818959
 20
85.625884
 30
0.0
 10
4.801550
 20
85.625884
 30
0.0
 10
4.784854
 20
85.632800
 30
0.0
 10
4.772543
 20
85.645110
 30
0.0
  0
SPLINE
  5
14b
100
AcDbEntity
  8
Layer_1
 62
7
100
AcDbSpline
 70
8
 71
3
 72
8
 73
4
 74
0
 40
0
 40
0
 40
0
 40
0
 40
1
 40
1
 40
1
 40
1
 10
4.772543
 20
85.645110
 30
0.0
 10
4.760233
 20
85.657420
 30
0.0
 10
4.753317
 20
85.674117
 30
0.0
 10
4.753317
 20
85.691526
 30
0.0
  0
LWPOLYLINE
  5
14c
100
AcDbEntity
  8
Layer_1
 62
7
100
AcDbPolyline
 90
1
 70
1
 10
4.818959
 20
85.625884
 30
0.0
  0
SPLINE
  5
14d
100
AcDbEntity
  8
Layer_1
 62
7
100
AcDbSpline
 70
8
 71
3
 72
8
 73
4
 74
0
 40
0
 40
0
 40
0
 40
0
 40
1
 40
1
 40
1
 40
1
 10
4.753317
 20
86.080647
 30
0.0
 10
4.753317
 20
86.098056
 30
0.0
 10
4.760233
 20
86.114752
 30
0.0
 10
4.772543
 20
86.127063
 30
0.0
  0
SPLINE
  5
14e
100
AcDbEntity
  8
Layer_1
 62
7
100
AcDbSpline
 70
8
 71
3
 72
8
 73
4
 74
0
 40
0
 40
0
 40
0
 40
0
 40
1
 40
1
 40
1
 40
1
 10
4.772543
 20
86.127063
 30
0.0
 10
4.784854
 20
86.139373
 30
0.0
 10
4.801550
 20
86.146289
 30
0.0
 10
4.818959
 20
86.146289
 30
0.0
  0
LWPOLYLINE
  5
14f
100
AcDbEntity
  8
Layer_1
 62
7
100
AcDbPolyline
 90
2
 70
0
 10
4.753317
 20
85.691526
 30
0.0
 10
4.753317
 20
86.080647
 30
0.0
  0
SPLINE
  5
150
100
AcDbEntity
  8
Layer_1
 62
7
100
AcDbSpline
 70
8
 71
3
 72
8
 73
4
 74
0
 40
0
 40
0
 40
0
 40
0
 40
1
 40
1
 40
1
 40
1
 10
23.531733
 20
85.830064
 30
0.0
 10
23.629395
 20
84.599778
 30
0.0
 10
24.200846
 20
83.547637
 30
0.0
 10
24.931516
 20
81.893480
 30
0.0
  0
SPLINE
  5
151
100
AcDbEntity
  8
Layer_1
 62
7
100
AcDbSpline
 70
8
 71
3
 72
8
 73
4
 74
0
 40
0
 40
0
 40
0
 40
0
 40
1
 40
1
 40
1
 40
1
 10
24.931516
 20
81.893480
 30
0.0
 10
25.686499
 20
80.184281
 30
0.0
 10
28.195407
 20
80.619139
 30
0.0
 10
29.455223
 20
79.943219
 30
0.0
  0
SPLINE
  5
152
100
AcDbEntity
  8
Layer_1
 62
7
100
AcDbSpline
 70
8
 71
3
 72
8
 73
4
 74
0
 40
0
 40
0
 40
0
 40
0
 40
1
 40
1
 40
1
 40
1
 10
22.517124
 20
85.854919
 30
0.0
 10
22.614786
 20
84.624633
 30
0.0
 10
23.584519
 20
83.663397
 30
0.0
 10
23.925508
 20
81.829990
 30
0.0
  0
SPLINE
  5
153
100
AcDbEntity
  8
Layer_1
 62
7
100
AcDbSpline
 70
8
 71
3
 72
8
 73
4
 74
0
 40
0
 40
0
 40
0
 40
0
 40
1
 40
1
 40
1
 40
1
 10
23.925508
 20
81.829990
 30
0.0
 10
24.339073
 20
79.606361
 30
0.0
 10
24.290519
 20
78.639535
 30
0.0
 10
23.382474
 20
77.851347
 30
0.0
  0
SPLINE
  5
154
100
AcDbEntity
  8
Layer_1
 62
7
100
AcDbSpline
 70
8
 71
3
 72
8
 73
4
 74
0
 40
0
 40
0
 40
0
 40
0
 40
1
 40
1
 40
1
 40
1
 10
24.954511
 20
77.848223
 30
0.0
 10
24.589680
 20
79.679105
 30
0.0
 10
24.830869
 20
80.806321
 30
0.0
 10
25.951642
 20
80.176516
 30
0.0
  0
SPLINE
  5
155
100
AcDbEntity
  8
Layer_1
 62
7
100
AcDbSpline
 70
8
 71
3
 72
8
 73
4
 74
0
 40
0
 40
0
 40
0
 40
0
 40
1
 40
1
 40
1
 40
1
 10
25.951642
 20
80.176516
 30
0.0
 10
27.111326
 20
79.625076
 30
0.0
 10
28.009954
 20
79.782557
 30
0.0
 10
29.436335
 20
78.970314
 30
0.0
  0
LWPOLYLINE
  5
156
100
AcDbEntity
  8
Layer_1
 62
7
100
AcDbPolyline
 90
1
 70
1
 10
4.818959
 20
86.146289
 30
0.0
  0
LWPOLYLINE
  5
157
100
AcDbEntity
  8
Layer_1
 62
7
100
AcDbPolyline
 90
4
 70
1
 10
1.322153
 20
81.626756
 30
0.0
 10
1.808966
 20
81.626756
 30
0.0
 10
1.808966
 20
81.139942
 30
0.0
 10
1.322153
 20
81.139942
 30
0.0
  0
LWPOLYLINE
  5
158
100
AcDbEntity
  8
Layer_1
 62
7
100
AcDbPolyline
 90
4
 70
1
 10
7.066733
 20
81.591464
 30
0.0
 10
8.302967
 20
81.591464
 30
0.0
 10
8.302967
 20
81.175231
 30
0.0
 10
7.066733
 20
81.175231
 30
0.0
  0
ENDSEC
  0
SECTION
  2
OBJECTS
  0
DICTIONARY
  5
C
330
0
100
AcDbDictionary
  3
ACAD_GROUP
350
D
  3
ACAD_MLINESTYLE
350
17
  0
DICTIONARY
  5
D
330
C
100
AcDbDictionary
  0
DICTIONARY
  5
1A
330
C
100
AcDbDictionary
  0
DICTIONARY
  5
17
330
C
100
AcDbDictionary
  3
STANDARD
350
18
  0
DICTIONARY
  5
19
330
C
100
AcDbDictionary
  0
ENDSEC
  0
EOF
